<?xml version="1.0" encoding="UTF-8" standalone="no"?>
<!-- Created with Inkscape (http://www.inkscape.org/) -->

<svg
   width="368.89511"
   height="88.44735"
   viewBox="0 0 97.603504 23.401695"
   version="1.1"
   id="svg1"
   xml:space="preserve"
   sodipodi:docname="glosse_logo.svg"
   inkscape:version="1.4.2 (f4327f4, 2025-05-13)"
   xmlns:inkscape="http://www.inkscape.org/namespaces/inkscape"
   xmlns:sodipodi="http://sodipodi.sourceforge.net/DTD/sodipodi-0.dtd"
   xmlns="http://www.w3.org/2000/svg"
   xmlns:svg="http://www.w3.org/2000/svg"><sodipodi:namedview
     id="namedview1"
     pagecolor="#ffffff"
     bordercolor="#000000"
     borderopacity="0.25"
     inkscape:showpageshadow="2"
     inkscape:pageopacity="0.0"
     inkscape:pagecheckerboard="0"
     inkscape:deskcolor="#d1d1d1"
     inkscape:zoom="2"
     inkscape:cx="196.25"
     inkscape:cy="44.25"
     inkscape:window-width="1920"
     inkscape:window-height="1017"
     inkscape:window-x="-8"
     inkscape:window-y="-8"
     inkscape:window-maximized="1"
     inkscape:current-layer="g1" /><defs
     id="defs1" /><g
     id="layer1"
     transform="translate(-43.521219,-104.48589)"><g
       id="g1"
       transform="matrix(0.69754481,0,0,0.69754481,11.718078,24.991262)"><text
         xml:space="preserve"
         style="font-style:normal;font-variant:normal;font-weight:normal;font-stretch:normal;font-size:6.57465px;font-family:Allura;-inkscape-font-specification:Allura;text-align:start;letter-spacing:0.551805px;writing-mode:lr-tb;direction:ltr;text-anchor:start;fill:#455058;fill-opacity:1;stroke:#000000;stroke-width:0;stroke-dasharray:none;stroke-opacity:1"
         x="99.426109"
         y="143.84105"
         id="text2"><tspan
           id="tspan2"
           style="font-style:normal;font-variant:normal;font-weight:normal;font-stretch:normal;font-size:6.57465px;font-family:'TT Lovelies Script';-inkscape-font-specification:'TT Lovelies Script';letter-spacing:0.551805px;fill:#455058;fill-opacity:1;stroke:#000000;stroke-width:0;stroke-dasharray:none;stroke-opacity:1"
           x="99.426109"
           y="143.84105">Viktoriya Meshkova</tspan></text><g
         id="g2"
         transform="matrix(0.72387816,0,0,0.72387816,56.973242,52.8844)"><text
           xml:space="preserve"
           style="font-style:normal;font-variant:normal;font-weight:500;font-stretch:normal;font-size:29.6333px;font-family:'Playfair Display';-inkscape-font-specification:'Playfair Display Medium';text-align:start;letter-spacing:5.84994px;writing-mode:lr-tb;direction:ltr;text-anchor:start;fill:#455058;fill-opacity:1;stroke-width:0.30783"
           x="37.261547"
           y="114.18394"
           id="text1-8"><tspan
             id="tspan1-6"
             x="37.261547"
             y="114.18394"
             style="font-size:29.6333px;letter-spacing:5.84994px;fill:#455058;fill-opacity:1;stroke-width:0.30783">GLOSSE</tspan></text><text
           xml:space="preserve"
           style="font-style:normal;font-variant:normal;font-weight:500;font-stretch:normal;font-size:29.6333px;font-family:'Playfair Display';-inkscape-font-specification:'Playfair Display Medium';text-align:start;letter-spacing:5.84994px;writing-mode:lr-tb;direction:ltr;text-anchor:start;fill:#455058;fill-opacity:1;stroke-width:0.30783"
           x="-194.09468"
           y="57.663399"
           id="text1-8-7"
           transform="matrix(-0.95977169,-0.2807816,-0.2807816,0.95977169,0,0)"><tspan
             id="tspan1-6-1"
             x="-194.09468"
             y="57.663399"
             style="font-size:29.6333px;letter-spacing:5.84994px;fill:#455058;fill-opacity:1;stroke-width:0.30783">`</tspan></text></g><path
         style="fill:#a86e56;fill-opacity:1;stroke-width:0.176186"
         d="m 70.956082,147.44726 c -0.135197,-0.0803 -0.123693,-0.19346 0.03524,-0.34672 0.143685,-0.13856 0.245723,-0.43924 0.149048,-0.43924 -0.03159,0 -0.05749,0.0349 -0.05749,0.0777 0,0.14871 -0.164198,0.23334 -0.262335,0.1352 -0.134021,-0.13403 -0.04614,-0.30837 0.194554,-0.38587 0.260267,-0.0838 0.329296,-0.13762 0.368417,-0.2872 0.02718,-0.10387 0.01049,-0.0986 -0.137529,0.0431 -0.13693,0.13118 -0.17775,0.14631 -0.21822,0.0809 -0.07759,-0.12554 0.03495,-0.27388 0.303496,-0.40012 0.233427,-0.10972 0.706529,-0.62221 0.879693,-0.95293 0.07191,-0.13736 0.07125,-0.13791 -0.06255,-0.0505 -9.255651,6.03873 -22.386789,0.51716 -23.616681,-9.93069 -0.06865,-0.58318 -0.228588,-1.46078 -0.395581,-2.17061 -0.05836,-0.24807 -0.144714,-0.69481 -0.191896,-0.99274 -0.126193,-0.79687 -0.246907,-1.08934 -0.457633,-1.10876 -0.309761,-0.0286 -0.417815,-0.0699 -0.478146,-0.18254 -0.129842,-0.24261 0.128758,-0.42373 0.39872,-0.27924 0.123304,0.066 0.134899,0.0389 0.05069,-0.11845 -0.04583,-0.0857 -0.119278,-0.10906 -0.341984,-0.10906 -0.372885,0 -0.501726,-0.0729 -0.501726,-0.28388 0,-0.17652 0.0154,-0.18389 0.352372,-0.16831 0.25099,0.0117 0.256975,-0.0131 0.06443,-0.26548 -0.146988,-0.19272 -0.146988,-0.19272 -0.271437,-0.0758 -0.169131,0.1589 -0.458773,0.15599 -0.545183,-0.005 -0.09768,-0.18252 0.0724,-0.29018 0.385716,-0.24417 0.290864,0.0427 0.292598,0.0309 0.03693,-0.25213 -0.200104,-0.22149 -0.204831,-0.22325 -0.370283,-0.13769 -0.200582,0.10372 -0.380159,0.0867 -0.461919,-0.0437 -0.07351,-0.1173 0.09186,-0.32748 0.257645,-0.32748 0.05904,0 0.09167,-0.0254 0.0725,-0.0563 -0.01916,-0.0311 -0.107647,-0.0564 -0.196628,-0.0564 -0.279268,0 -0.45186,-0.3156 -0.271322,-0.49614 0.171926,-0.17193 0.400083,-0.0543 0.47099,0.24275 0.04414,0.18496 0.178097,0.36614 0.270682,0.36614 0.03611,0 0.03273,-0.0262 -0.0088,-0.0677 -0.102748,-0.10276 -0.0826,-0.37143 0.03246,-0.43301 0.24131,-0.12914 0.399862,0.2271 0.21176,0.47578 -0.120309,0.15907 -0.108109,0.2076 0.113719,0.45242 0.111839,0.12343 0.174002,0.1665 0.140949,0.0977 -0.12831,-0.26721 -0.05329,-0.58159 0.13878,-0.58159 0.194467,0 0.258048,0.49084 0.08398,0.64836 -0.148374,0.13427 -0.141625,0.18344 0.06191,0.45104 0.155595,0.20456 0.167979,0.2111 0.133267,0.0705 -0.06102,-0.2472 0.01082,-0.43694 0.165456,-0.43694 0.295499,0 0.426521,0.58839 0.201419,0.90451 -0.112263,0.15767 -0.119402,0.19672 -0.05485,0.30007 0.06999,0.11207 0.174252,0.471 0.362503,1.24793 0.04508,0.18606 0.107951,0.57628 0.139712,0.86715 0.03176,0.29089 0.07465,0.54459 0.0953,0.5638 0.02065,0.0192 0.02007,-0.14871 -0.0013,-0.37314 -0.02138,-0.22443 -0.03102,-0.92213 -0.02143,-1.55044 0.04937,-3.23398 0.0033,-3.60035 -0.512511,-4.07792 -0.761596,-0.70511 -0.86504,-1.50759 -0.331066,-2.56831 0.177625,-0.35283 0.343671,-0.743 0.368991,-0.86704 0.05974,-0.2926 0.149389,-0.2852 0.307735,0.0254 0.166428,0.32644 0.23484,0.33869 0.319184,0.0572 0.09341,-0.31177 0.141317,-0.27602 0.41085,0.30659 0.438196,0.94717 0.238937,2.30039 -0.455129,3.09089 -0.17634,0.20084 -0.17634,0.20084 -0.08369,0.58739 0.05095,0.21261 0.10846,0.691 0.127784,1.06312 0.03513,0.67654 0.03513,0.67654 0.192019,0.0282 0.381036,-1.57474 0.697196,-2.63613 1.108415,-3.72106 0.587122,-1.54902 0.725755,-2.52104 0.348809,-2.44564 -0.211882,0.0423 -0.431887,-0.13602 -0.377823,-0.30636 0.0471,-0.14842 0.232468,-0.16309 0.379485,-0.0301 0.09422,0.0853 0.103103,0.0854 0.103103,0.002 0,-0.11691 -0.203654,-0.22692 -0.349479,-0.18878 -0.157951,0.0412 -0.270693,-0.0137 -0.270693,-0.13203 0,-0.13827 0.119425,-0.17203 0.284738,-0.0805 0.196393,0.10877 0.273317,0.0989 0.239428,-0.0307 -0.0507,-0.19387 -0.274488,-0.39201 -0.404399,-0.35803 -0.265531,0.0695 -0.49973,-0.0895 -0.423726,-0.28756 0.04931,-0.12852 0.196508,-0.1548 0.340092,-0.0607 0.153575,0.10063 0.171008,0.0512 0.04523,-0.12842 -0.04827,-0.0689 -0.134258,-0.1253 -0.191082,-0.1253 -0.192133,0 -0.362531,-0.18975 -0.320562,-0.35696 0.03006,-0.11975 0.07113,-0.15046 0.201216,-0.15046 0.275805,0 0.334177,0.0512 0.375066,0.32917 0.05132,0.34891 0.192266,0.57287 0.192266,0.30553 0,-0.20775 0.142544,-0.31915 0.29745,-0.23246 0.130073,0.0727 0.122958,0.28275 -0.01555,0.45883 -0.06202,0.0789 -0.111613,0.17741 -0.110212,0.21903 0.0034,0.10237 0.273583,0.60189 0.276803,0.51185 0.0014,-0.0393 -0.02654,-0.1178 -0.06208,-0.17473 -0.112596,-0.18028 -0.01463,-0.41259 0.165258,-0.39186 0.202585,0.0234 0.230795,0.22018 0.07204,0.50264 -0.103224,0.18367 -0.121323,0.31786 -0.132805,0.98466 -0.01329,0.77202 -0.01329,0.77202 0.177894,0.35593 0.744465,-1.62021 0.965561,-2.43892 0.741034,-2.74402 -0.257925,-0.3505 -0.29425,-1.69002 -0.05842,-2.15423 0.151379,-0.29798 0.624499,-0.95846 0.686568,-0.95846 0.03658,0 0.07867,0.17227 0.122289,0.50068 0.0063,0.0478 0.122264,-0.0228 0.300522,-0.18323 0.366749,-0.32995 0.357806,-0.33292 0.360195,0.1195 9.02e-4,0.2093 0.03879,0.53278 0.08368,0.71883 0.221244,0.91628 -0.130993,1.70279 -0.924879,2.06515 -0.213009,0.0972 -0.301242,0.17206 -0.323798,0.27461 -0.119416,0.54286 -0.218711,0.87581 -0.383881,1.28717 -0.197428,0.4917 -0.193618,0.51157 0.03253,0.16972 0.318021,-0.48073 1.387449,-1.70733 1.841242,-2.11183 0.617686,-0.55058 0.702813,-0.65896 1.172135,-1.49223 0.210978,-0.37459 0.480102,-0.7907 0.598057,-0.92471 0.184655,-0.20977 0.214629,-0.28162 0.215696,-0.51688 0.0042,-0.87216 0.73342,-1.47575 2.100145,-1.73776 0.748582,-0.14352 0.779587,-0.14148 0.663548,0.0435 -0.04287,0.0683 -0.240075,0.40337 -0.438203,0.74447 -0.607214,1.04536 -1.025706,1.35727 -1.807005,1.34678 -0.530078,-0.007 -0.640726,0.0892 -1.120512,0.97511 -0.114474,0.21138 -0.260619,0.46031 -0.324771,0.5532 -0.104863,0.15182 -0.08254,0.14277 0.22123,-0.0896 10.391628,-7.95032 24.887087,-2.23192 25.738292,10.15365 0.03517,0.51164 0.09728,1.05713 0.138043,1.21216 0.04073,0.15505 0.09055,0.51865 0.110633,0.80801 0.03495,0.503 0.223383,1.24635 0.406312,1.60262 0.07185,0.13993 0.101197,0.15203 0.293996,0.1212 0.337776,-0.054 0.491432,0.13687 0.300237,0.37298 -0.08871,0.10955 -0.119584,0.11733 -0.230345,0.058 -0.159633,-0.0855 -0.202614,-0.0478 -0.120562,0.1055 0.04978,0.0931 0.09538,0.11001 0.21499,0.08 0.456497,-0.11458 0.791155,0.0964 0.544377,0.34319 -0.0916,0.0916 -0.319837,0.0723 -0.461055,-0.0389 -0.125098,-0.0985 -0.08041,0.10961 0.05813,0.27064 0.128579,0.14949 0.128579,0.14949 0.336328,0.0269 0.328931,-0.19407 0.652007,-0.003 0.459471,0.27221 -0.107045,0.15283 -0.247264,0.15431 -0.437552,0.005 -0.189947,-0.14942 -0.207993,-0.015 -0.02147,0.16017 0.09401,0.0883 0.214818,0.12386 0.464578,0.13668 0.279147,0.0143 0.341064,0.0358 0.357947,0.12447 0.01869,0.0979 -0.0064,0.10435 -0.295444,0.0746 -0.369288,-0.0382 -0.386905,-0.002 -0.115412,0.23632 0.186766,0.16398 0.208784,0.17016 0.322627,0.0904 0.2465,-0.17267 0.54163,-0.0497 0.464427,0.19361 -0.02618,0.0825 -0.08484,0.11545 -0.205317,0.11545 -0.200524,0 -0.170917,0.0842 0.04886,0.1391 0.327975,0.0819 0.464549,0.36098 0.236365,0.4831 -0.157322,0.0842 -0.376791,-0.0593 -0.401105,-0.26219 -0.0099,-0.0824 -0.07205,-0.18558 -0.138165,-0.22921 -0.117744,-0.0777 -0.11962,-0.0741 -0.09145,0.17583 0.02347,0.20836 0.01049,0.26217 -0.07069,0.29333 -0.233955,0.0898 -0.419465,-0.25531 -0.200303,-0.3726 0.188049,-0.10064 0.134905,-0.2868 -0.201731,-0.70658 -0.379536,-0.4733 -0.413644,-0.49253 -0.376027,-0.21213 0.03723,0.27791 -0.08266,0.40266 -0.294374,0.30621 -0.185332,-0.0845 -0.184512,-0.30402 0.0014,-0.45047 0.172865,-0.13598 0.17708,-0.2484 0.0189,-0.50434 -0.113921,-0.18434 -0.127067,-0.19064 -0.197329,-0.0945 -0.137081,0.18746 -0.07089,0.33639 0.08164,0.18381 0.09437,-0.0944 0.136888,-0.0285 0.09342,0.14463 -0.0423,0.16861 -0.194191,0.19569 -0.330879,0.0589 -0.11785,-0.11785 -0.111795,-0.29341 0.0184,-0.53245 0.106617,-0.1958 0.106532,-0.19731 -0.02468,-0.45016 -0.293589,-0.56566 -0.579383,-1.6265 -0.638048,-2.36835 -0.0557,-0.70434 -0.0557,-0.70434 -0.04001,0.14135 0.0098,0.52651 -0.02525,1.27127 -0.09269,1.97329 -0.240616,2.50453 -0.143142,4.17423 0.265381,4.54597 0.728768,0.66317 0.725151,1.7957 -0.0088,2.76041 -0.174754,0.22968 -0.366563,0.52694 -0.426227,0.66055 -0.125304,0.28062 -0.1974,0.28278 -0.293097,0.009 -0.178221,-0.51023 -0.227107,-0.54627 -0.376576,-0.27768 -0.173892,0.31246 -0.276002,0.34972 -0.277164,0.10112 -4.63e-4,-0.10336 -0.03766,-0.34016 -0.08256,-0.52621 -0.233227,-0.96589 0.389295,-2.56339 1.090145,-2.79752 0.04679,-0.0156 0.04001,-0.15142 -0.0251,-0.50069 -0.04914,-0.26357 -0.104542,-0.94858 -0.123079,-1.52224 -0.02004,-0.62156 -0.04928,-0.96329 -0.07218,-0.84569 -0.288048,1.47718 -0.982359,3.22086 -1.902349,4.77748 -0.9836,1.66426 -1.462065,2.86414 -1.156685,2.90069 0.174419,0.0208 0.37592,0.26615 0.325857,0.39663 -0.0644,0.16788 -0.215182,0.17331 -0.35331,0.0127 -0.07144,-0.083 -0.141838,-0.1391 -0.156417,-0.12451 -0.06184,0.0618 0.07487,0.27046 0.257806,0.39338 0.218306,0.14668 0.2861,0.34711 0.136787,0.40441 -0.118293,0.0454 -0.244189,-0.0559 -0.342526,-0.27567 -0.07478,-0.16713 -0.07553,-0.16576 -0.06184,0.11261 0.01291,0.26248 0.0276,0.28822 0.214562,0.37595 0.255787,0.12004 0.348311,0.23283 0.325136,0.39629 -0.03245,0.22904 -0.441261,0.18283 -0.441261,-0.0498 0,-0.0581 0.0353,-0.0702 0.123407,-0.0423 0.106731,0.0339 0.101211,0.0185 -0.04094,-0.11311 -0.09037,-0.0838 -0.17322,-0.12555 -0.184118,-0.0929 -0.03131,0.0941 0.152443,0.67252 0.229368,0.72181 0.224375,0.14377 0.247356,0.41104 0.03537,0.41104 -0.07625,0 -0.106724,-0.0403 -0.106724,-0.14094 0,-0.0775 -0.02696,-0.14096 -0.05991,-0.14096 -0.03296,0 -0.052,0.0541 -0.0423,0.12009 0.02375,0.16162 -0.139164,0.26564 -0.259532,0.16573 -0.123979,-0.10289 -0.11154,-0.30458 0.02646,-0.42949 0.09541,-0.0864 0.109171,-0.1449 0.07822,-0.33292 -0.04629,-0.2813 -0.133321,-0.45845 -0.135903,-0.27668 -0.0036,0.24146 -0.197372,0.40312 -0.334617,0.27892 -0.190774,-0.17265 -0.149933,-0.36008 0.135569,-0.6222 0.240623,-0.22092 0.253712,-0.24864 0.253712,-0.53742 0,-0.27746 -0.0071,-0.29477 -0.08063,-0.19504 -0.04437,0.0602 -0.05742,0.11777 -0.02903,0.12796 0.07947,0.0285 -0.107488,0.34795 -0.203649,0.34795 -0.238804,0 -0.153514,-0.39794 0.125996,-0.58787 0.176602,-0.12001 0.219897,-0.19463 0.303497,-0.52308 0.05363,-0.21072 0.200632,-0.62414 0.326685,-0.91872 0.156296,-0.36526 0.192572,-0.49078 0.114064,-0.39465 -0.795728,0.97425 -1.112656,1.32702 -1.708586,1.90184 -1.105602,1.06643 -1.541835,1.88319 -1.192426,2.2326 0.379301,0.37931 0.31936,0.9884 -0.151937,1.54368 -0.33804,0.39826 -0.363275,0.41038 -0.415799,0.19944 -0.02126,-0.0853 -0.06862,-0.18042 -0.105233,-0.21142 -0.293183,-0.24809 -0.224148,-1.14961 0.112814,-1.47332 0.14731,-0.14152 0.258499,-0.30752 0.283241,-0.42285 0.02239,-0.10443 0.113572,-0.33777 0.202614,-0.51854 0.08905,-0.18077 0.143158,-0.32031 0.120248,-0.31009 -0.281294,0.12546 -1.405996,1.01456 -1.549017,1.22454 -0.09737,0.14295 -0.277684,0.3804 -0.400721,0.52767 -0.210574,0.25206 -0.218219,0.2738 -0.130333,0.37089 0.11845,0.13089 0.120391,0.32556 0.0036,0.37033 -0.123179,0.0473 -0.191502,-0.005 -0.196202,-0.15252 -0.0036,-0.11894 -0.0057,-0.11934 -0.05142,-0.0107 -0.03466,0.0822 -0.01833,0.13808 0.06034,0.20636 0.12997,0.11285 0.138029,0.23398 0.02197,0.33029 -0.05071,0.042 -0.07187,0.11529 -0.05171,0.17875 0.07426,0.23396 -0.219353,0.36872 -0.314552,0.14438 -0.04158,-0.098 -0.05078,-0.0563 -0.04044,0.18324 0.01433,0.33295 -0.07877,0.4164 -0.310816,0.27853 z m -5.040831,-0.387 c 0.792539,-0.12316 2.239561,-0.4698 2.401063,-0.57519 0.07913,-0.0516 0.07876,-0.0548 -0.0036,-0.0297 -7.658552,2.34099 -16.331877,-2.26515 -19.305335,-10.2525 -0.229026,-0.61521 -0.239545,-0.55258 -0.04951,0.29475 1.284683,5.72799 6.341956,9.90838 12.935034,10.69222 0.610731,0.0726 3.273059,-0.0132 4.022183,-0.12961 z m 0.20628,-0.32119 c 2.664689,-0.32331 5.348379,-1.36516 7.336968,-2.84833 0.695837,-0.51899 0.901717,-0.71998 0.493215,-0.4815 -0.402139,0.23477 -1.045538,0.46997 -1.807258,0.66065 -0.678354,0.16983 -0.718082,0.18765 -0.786633,0.35315 -0.398232,0.96142 -1.344699,1.1142 -2.938822,0.47433 -0.794914,-0.31906 -0.8252,-0.34662 -0.479228,-0.43614 0.131788,-0.0341 0.579725,-0.2317 0.995403,-0.4391 1.023149,-0.51053 2.090791,-0.51334 2.404144,-0.006 0.08228,0.13314 1.278723,-0.1703 2.111554,-0.53552 1.256633,-0.55105 2.665075,-1.86919 3.77997,-3.53758 0.238583,-0.35702 0.238583,-0.35702 -0.0088,-0.12145 -0.296956,0.28275 -0.975496,0.70758 -1.338835,0.83824 -0.225731,0.0811 -0.282592,0.135 -0.403188,0.38161 -0.380329,0.77779 -1.264821,1.01024 -2.399452,0.63062 -0.39239,-0.13128 -0.694874,-0.19733 -0.903736,-0.19733 -0.38383,0 -0.381841,-0.068 0.0093,-0.32007 0.539291,-0.34742 0.530248,-0.3165 0.131389,-0.44905 -0.484692,-0.16109 -0.473194,-0.20015 0.129955,-0.44156 0.965881,-0.38658 2.174298,-0.29292 2.924028,0.22664 0.511054,0.35416 2.09604,-0.8061 2.747263,-2.01108 0.338981,-0.62724 0.874428,-1.92202 1.061978,-2.56802 0.07358,-0.25345 0.148849,-0.50716 0.167266,-0.5638 0.0184,-0.0567 -0.05921,0.0586 -0.172436,0.2561 -0.113258,0.1975 -0.302756,0.49018 -0.42112,0.6504 -0.118358,0.16022 -0.234283,0.37919 -0.2576,0.4866 -0.03987,0.18352 -0.111366,0.277 -0.213455,0.279 -0.02432,4.7e-4 -0.01804,-0.0482 0.01405,-0.10819 0.07949,-0.14852 0.07348,-0.2105 -0.01205,-0.12493 -0.0388,0.0387 -0.07362,0.18417 -0.07746,0.32316 -0.0071,0.25769 -0.136767,0.47461 -0.283648,0.47461 -0.09181,0 -0.09911,-0.18943 -0.01348,-0.34944 0.04679,-0.0874 0.005,-0.07 -0.169134,0.0695 -0.239525,0.19248 -0.287941,0.25727 -0.153799,0.20579 0.183206,-0.0703 0.272484,0.2233 0.115605,0.38019 -0.202522,0.20252 -0.447953,0.0712 -0.376642,-0.20147 0.03352,-0.12818 0.03067,-0.1293 -0.102523,-0.0406 -0.09739,0.0648 -0.131866,0.13305 -0.119257,0.23604 0.0214,0.17488 -0.06641,0.35337 -0.212264,0.43142 -0.209518,0.11214 -0.394872,-0.0746 -0.282506,-0.28448 0.06612,-0.12351 0.02775,-0.13292 -0.207392,-0.0509 -0.104963,0.0365 -0.168856,0.10021 -0.174391,0.17364 -0.02325,0.30816 -0.369123,0.36753 -0.520697,0.0894 -0.0902,-0.16553 0.09051,-0.43129 0.23327,-0.34306 0.137458,0.0849 0.462688,-0.0368 0.335764,-0.12572 -0.14544,-0.10187 -0.154241,-0.22461 -0.02111,-0.29438 0.120276,-0.0631 0.342155,0.0119 0.387839,0.13096 0.04515,0.11768 0.152779,0.10792 0.431911,-0.0391 0.218656,-0.11519 0.226251,-0.12644 0.09642,-0.14263 -0.322712,-0.0403 -0.394658,-0.0742 -0.394658,-0.18619 0,-0.1708 0.13927,-0.19082 0.411298,-0.0591 0.308482,0.14933 0.330195,0.14834 0.490776,-0.0226 0.132409,-0.14095 0.132409,-0.14095 -0.117031,-0.1418 -0.32866,-7.2e-4 -0.440748,-0.0678 -0.332719,-0.19802 0.07797,-0.094 0.204312,-0.0929 0.624162,0.005 0.108401,0.0254 0.188599,-0.004 0.310088,-0.10981 0.163863,-0.144 0.163863,-0.144 -0.06162,-0.13174 -0.195333,0.0107 -0.227921,-0.005 -0.243528,-0.1145 -0.02596,-0.18268 0.233627,-0.27762 0.421848,-0.15428 0.204019,0.13368 0.445206,-0.15313 0.915133,-1.08823 0.540169,-1.07487 0.861369,-3.63268 0.688255,-5.48083 -0.03431,-0.36648 -0.03431,-0.36648 -0.08126,-0.0282 -0.05899,0.42542 -0.229995,1.16589 -0.341826,1.48031 -0.06512,0.1832 -0.07721,0.37342 -0.05093,0.80426 0.08909,1.4623 -0.684097,2.24251 -3.295249,3.32527 -0.979512,0.40618 -0.992065,0.40607 -0.714203,-0.006 0.280766,-0.41664 0.441433,-0.74439 0.740223,-1.50999 0.666101,-1.70675 1.356845,-2.30717 2.67971,-2.3293 0.441426,-0.007 0.484336,-0.0758 0.717741,-1.1441 0.807546,-3.69626 -2.552958,-9.4148 -7.191172,-12.23714 -5.15508,-3.13683 -11.939633,-3.10064 -16.852936,0.0899 -0.790227,0.51315 -0.809796,0.53464 -0.336239,0.36934 0.495059,-0.1728 1.17176,-0.3422 1.717535,-0.42993 0.511467,-0.0822 0.593677,-0.12187 0.706864,-0.34074 0.105354,-0.20374 0.323831,-0.30346 0.480797,-0.21945 0.15183,0.0812 0.136117,0.19396 -0.04601,0.32982 -0.155039,0.11567 -0.155039,0.11567 0.0495,0.11746 0.21439,0.002 0.305195,-0.065 0.339517,-0.24998 0.02981,-0.16084 0.301022,-0.30129 0.42803,-0.22171 0.145833,0.0914 0.155333,0.28589 0.01819,0.37156 -0.17392,0.10863 -0.141574,0.15829 0.103079,0.15829 0.186331,0 0.224675,-0.0209 0.254375,-0.13932 0.06647,-0.26493 0.358682,-0.32161 0.480869,-0.0933 0.07722,0.14427 -0.05385,0.28742 -0.268027,0.29276 -0.120148,0.003 -0.09916,0.0201 0.102694,0.0837 0.326279,0.10281 0.309275,0.10557 0.386014,-0.0628 0.05356,-0.1176 0.09881,-0.14122 0.242977,-0.12687 0.23016,0.0229 0.343075,0.19048 0.200025,0.29684 -0.07047,0.0524 -0.09079,0.11694 -0.06683,0.21231 0.07536,0.30028 -0.365343,0.36071 -0.46435,0.0637 -0.03716,-0.11141 -0.112109,-0.16815 -0.292505,-0.22141 -0.242571,-0.0717 -0.242571,-0.0717 -0.123943,0.0546 0.147844,0.15737 0.151531,0.29477 0.0099,0.37052 -0.214704,0.11492 -0.400506,-0.10764 -0.326421,-0.39095 0.02932,-0.11201 -0.05977,-0.15778 -0.49517,-0.25446 -0.169133,-0.0375 -0.169133,-0.0375 -0.0088,0.1303 0.187751,0.19669 0.180525,0.36785 -0.01669,0.3958 -0.166054,0.0236 -0.284482,-0.11813 -0.284482,-0.34031 0,-0.13738 -0.02175,-0.15836 -0.164526,-0.15836 -0.09049,0 -0.210995,-0.0145 -0.267799,-0.0325 -0.09588,-0.0301 -0.09626,-0.0279 -0.005,0.0306 0.254446,0.16375 0.234803,0.45289 -0.03074,0.45289 -0.148221,0 -0.37729,-0.2129 -0.37729,-0.35066 0,-0.1166 0.03281,-0.1184 -0.902074,0.0492 -0.948501,0.17003 -1.90584,0.51439 -2.35169,0.84592 -1.256018,0.93397 -3.406794,3.19585 -2.431194,2.55678 0.380609,-0.24932 0.95173,-0.53436 1.190996,-0.59442 0.0885,-0.0222 0.165853,-0.0954 0.197828,-0.18709 0.265562,-0.76179 1.226277,-1.02235 2.322853,-0.62999 0.39882,0.1427 0.632786,0.19259 0.916146,0.19531 0.464657,0.005 0.460034,0.0334 -0.06583,0.41203 -0.249356,0.17955 -0.380659,0.30668 -0.334428,0.32381 0.04185,0.0155 0.211169,0.0737 0.376225,0.12924 0.452931,0.15248 0.07683,0.41081 -0.840186,0.57709 -0.701582,0.12722 -1.900022,-0.16914 -2.277581,-0.56324 -0.184383,-0.19244 -0.258312,-0.17907 -0.923767,0.16714 -1.272074,0.6618 -2.173277,1.99722 -2.768405,4.10225 -0.118022,0.41745 -0.112461,0.42621 0.07161,0.11275 0.07739,-0.13178 0.28155,-0.41615 0.453691,-0.63192 0.223352,-0.27995 0.317792,-0.44948 0.32978,-0.59199 0.01208,-0.14349 0.0525,-0.21533 0.143652,-0.25533 0.09281,-0.0407 0.126855,-0.10317 0.126855,-0.2327 0,-0.2099 0.118603,-0.32727 0.279192,-0.27629 0.136305,0.0432 0.146809,0.13519 0.03268,0.28607 -0.144845,0.1915 -0.09265,0.2211 0.08731,0.0495 0.147784,-0.1409 0.169066,-0.195 0.142737,-0.36291 -0.03223,-0.20556 -0.01118,-0.26229 0.141569,-0.38154 0.217228,-0.16959 0.374703,0.12149 0.181329,0.33516 -0.154071,0.17025 -0.04122,0.18172 0.173838,0.0177 0.172604,-0.13166 0.199207,-0.18287 0.191894,-0.36948 -0.01598,-0.40771 0.411853,-0.57847 0.4503,-0.17972 0.0097,0.10078 -0.0045,0.18324 -0.03151,0.18324 -0.02704,0 -0.09842,0.0366 -0.158616,0.0812 -0.09763,0.0725 -0.08347,0.0748 0.131189,0.0211 0.168824,-0.0422 0.2692,-0.10858 0.33638,-0.22231 0.112324,-0.19014 0.268989,-0.25527 0.384147,-0.1597 0.130475,0.10828 0.09935,0.27312 -0.05909,0.31288 -0.168329,0.0423 -0.187759,0.13591 -0.0282,0.13591 0.137138,0 0.155884,0.19691 0.0236,0.24768 -0.16405,0.063 -0.251037,0.0352 -0.312415,-0.0994 -0.05595,-0.12281 -0.07949,-0.1295 -0.28987,-0.0822 -0.341957,0.0768 -0.368192,0.11648 -0.122662,0.18536 0.181762,0.051 0.222145,0.0876 0.222145,0.20148 0,0.21112 -0.337097,0.23248 -0.501937,0.0318 -0.118238,-0.14394 -0.118238,-0.14394 -0.341847,-0.0432 -0.145176,0.0653 -0.199559,0.11553 -0.155044,0.14305 0.112665,0.0696 0.07774,0.15729 -0.05828,0.14627 -0.232793,-0.0189 -0.242623,0.0178 -0.01409,0.0525 0.175683,0.0267 0.229389,0.0615 0.243034,0.15732 0.03505,0.24619 -0.260843,0.28003 -0.561523,0.0642 -0.07375,-0.0529 -0.12329,-0.0469 -0.239612,0.0293 -0.188689,0.12363 -0.184698,0.16715 0.02249,0.24536 0.278841,0.10526 0.195838,0.41192 -0.111491,0.41192 -0.07993,0 -0.197909,-0.0368 -0.262188,-0.0819 -0.416087,-0.29143 -1.499252,1.97595 -1.849267,3.87104 -0.221821,1.20103 -0.278638,1.96905 -0.2327,3.14551 0.06466,1.65603 0.10012,1.82709 0.188456,0.9092 0.08199,-0.85198 0.141057,-1.18237 0.29953,-1.67546 0.103333,-0.32153 0.104873,-0.36452 0.02418,-0.67431 -0.381551,-1.46487 0.312415,-2.45085 2.676413,-3.80259 0.60467,-0.34574 1.153809,-0.6794 1.220311,-0.74148 0.206965,-0.19316 0.195803,-0.0265 -0.03647,0.54428 -0.123035,0.30238 -0.364831,1.02223 -0.537327,1.59966 -0.549311,1.83887 -1.535373,2.76948 -2.9345,2.76948 -0.192324,0 -0.190093,-0.005 -0.450178,1.07122 -0.813127,3.36562 1.886546,8.6026 5.994895,11.62923 2.487725,1.83272 5.243276,2.81564 8.554765,3.05156 0.508778,0.0362 2.01575,-0.0264 2.734403,-0.1135 z m -6.168322,-4.24138 c -0.02254,-0.0365 0.03751,-0.20327 0.133342,-0.37078 0.646972,-1.13081 0.567686,-1.56158 -0.587072,-3.18957 -1.248216,-1.75974 -1.212625,-1.64743 -1.016665,-3.2083 0.09515,-0.75791 0.139847,-1.38423 0.136773,-1.91672 -0.0071,-1.18009 0.198427,-1.42347 0.762177,-0.90383 0.140867,0.12984 0.256121,0.20698 0.256121,0.17141 0,-0.0356 0.06791,-0.17201 0.150854,-0.30318 0.08297,-0.13116 0.281329,-0.53478 0.440791,-0.89692 0.400507,-0.90956 0.486832,-0.98733 0.765736,-0.68983 0.169127,0.18041 0.187593,0.96048 0.03588,1.51501 -0.05057,0.18472 -0.08182,0.34596 -0.06947,0.3583 0.03523,0.0352 0.560681,-0.70614 0.977058,-1.37864 0.741057,-1.19686 1.28634,-0.59051 0.767612,0.85359 -0.02268,0.0632 0.08924,-0.0173 0.254724,-0.18322 0.760108,-0.76209 0.927437,0.49689 0.181102,1.36266 -0.08818,0.10229 -0.08711,0.10572 0.01947,0.0625 0.398916,-0.16176 0.539028,-0.0452 0.458095,0.38105 -0.02539,0.13368 0.01234,0.088 0.143942,-0.17421 0.230923,-0.46016 0.502359,-0.76347 1.168018,-1.30523 0.882274,-0.71806 0.875263,-0.70737 0.705108,-1.07463 -0.196051,-0.42315 -0.385471,-0.6572 -0.634896,-0.78445 -0.657442,-0.3354 -1.043163,-1.16562 -0.573806,-1.23503 0.07699,-0.0115 0.113101,0.005 0.09133,0.0394 -0.03445,0.0557 0.178085,0.21007 0.224824,0.16333 0.01241,-0.0124 -0.105054,-0.16032 -0.260979,-0.32876 -0.594333,-0.64198 -0.723546,-1.49361 -0.185033,-1.21952 0.376299,0.19153 0.406776,0.18316 0.347341,-0.0955 -0.166666,-0.78144 0.194048,-0.96148 0.796784,-0.39769 0.269509,0.2521 0.269509,0.2521 0.300893,0.0181 0.07304,-0.54456 0.265665,-0.50242 0.805577,0.17622 0.20969,0.26357 0.610189,0.72712 0.889993,1.03011 0.799094,0.8653 0.829443,0.93831 1.242873,2.99083 0.402105,1.99624 0.435963,1.87319 -1.013577,3.68358 -1.151392,1.43803 -1.161563,1.57975 -0.245631,3.42347 0.401242,0.80766 0.487425,1.0602 0.328255,0.96182 -0.02989,-0.0185 -0.255388,-0.43498 -0.501012,-0.9255 -0.906381,-1.81011 -0.90273,-2.04689 0.05043,-3.27117 1.702209,-2.18638 1.603031,-1.87737 1.215106,-3.7859 -0.408281,-2.00872 -0.48671,-2.20078 -1.239493,-3.0353 -0.237393,-0.26318 -0.45557,-0.52323 -0.48482,-0.57789 -0.02925,-0.0546 -0.112502,-0.0994 -0.184983,-0.0994 -0.130489,0 -0.597186,-0.43961 -0.597186,-0.56253 0,-0.0318 -0.02539,-0.0577 -0.05634,-0.0577 -0.228056,0 0,0.82849 0.383317,1.39256 0.596695,0.87806 0.663505,0.93212 0.881946,0.71368 0.607122,-0.60713 0.967915,0.55779 0.508637,1.64227 -0.05235,0.12364 -0.329895,0.63105 -0.616751,1.1276 -0.61258,1.06036 -0.911197,1.6413 -1.043648,2.03039 -0.109085,0.32043 -0.329203,0.45633 -0.26016,0.16061 0.05749,-0.24611 0.656935,-1.42935 1.138247,-2.24666 0.624354,-1.06022 0.91793,-1.7361 0.618341,-1.42358 -0.281885,0.29406 -0.820613,0.11107 -0.820613,-0.27873 0,-0.12949 -0.05228,-0.0702 -0.295994,0.33555 -0.471818,0.78555 -0.696015,1.05569 -1.274706,1.5359 -1.50359,1.2477 -1.965864,2.56893 -1.518925,4.34122 0.158271,0.62763 0.702456,2.62641 0.951402,3.49449 0.104093,0.36297 0.142003,0.58214 0.106782,0.61736 -0.09028,0.0903 -0.138492,-0.0158 -0.331285,-0.72908 -0.100576,-0.3721 -0.356734,-1.31082 -0.569234,-2.08603 -0.573649,-2.0927 -0.623605,-2.87001 -0.250024,-3.8902 0.02276,-0.062 -0.03481,-0.0113 -0.127873,0.11276 -0.212485,0.28327 -0.307462,0.36277 -0.69309,0.58016 -0.327633,0.18468 -0.358995,0.22199 -0.622692,0.7409 -0.208207,0.40972 -0.220845,0.35651 0.141823,0.59722 1.177975,0.78191 1.766703,2.44284 1.467835,4.14113 -0.139,0.78984 -0.541261,1.9183 -0.683825,1.9183 -0.101161,0 -0.107681,0.0322 0.121453,-0.60076 0.847366,-2.34088 0.490675,-4.2719 -0.979321,-5.30176 -1.258772,-0.88187 -1.422984,-1.06022 -1.983367,-2.15403 -0.481489,-0.93982 -0.632627,-1.17146 -0.586972,-0.89964 0.07395,0.4403 -0.398195,0.77648 -0.698112,0.49707 -0.256244,-0.23873 -0.06298,0.28559 0.302099,0.81969 0.400164,0.58539 1.378649,2.67372 1.378649,2.94236 0,0.23349 -0.170012,-0.002 -0.364209,-0.50428 -0.731279,-1.89168 -1.455459,-2.9927 -1.507641,-2.29213 -0.02175,0.29183 -0.06648,0.72089 -0.09936,0.95345 -0.158678,1.1212 -0.137144,1.18395 0.928765,2.70622 1.130386,1.61437 1.24925,1.93444 1.016158,2.73623 -0.167129,0.57492 -0.529327,1.19127 -0.616829,1.04967 z m 2.028152,-6.72713 c 0.233641,-0.49121 0.31764,-0.58083 0.764473,-0.81563 0.492002,-0.25855 0.885862,-0.75357 0.528122,-0.6638 -0.08744,0.0219 -0.193085,0.002 -0.276957,-0.0533 -0.205053,-0.13436 -0.929826,0.52569 -1.357986,1.23671 -0.237278,0.39405 -0.239453,0.42226 -0.04194,0.54472 0.212579,0.1318 0.199227,0.14044 0.384288,-0.24864 z m -0.450841,-0.45563 c 0.144698,-0.22482 0.520148,-0.67514 0.834329,-1.00074 0.936767,-0.97079 1.199359,-1.44005 0.806284,-1.44091 -0.12927,-3.5e-4 -0.276964,-0.0204 -0.328189,-0.0448 -0.0728,-0.0347 -0.170604,0.0582 -0.447546,0.42471 -0.194911,0.25798 -0.49987,0.64665 -0.677692,0.86371 -0.684039,0.83499 -0.859007,1.21441 -0.656486,1.42358 0.218834,0.22601 0.160696,0.25395 0.4693,-0.22552 z m -0.519027,-0.50741 c 0.109633,-0.19381 0.392082,-0.59341 0.627663,-0.88798 0.541602,-0.67727 0.917031,-1.35333 0.991701,-1.78584 0.03117,-0.18062 0.07083,-0.40644 0.08808,-0.50183 0.03509,-0.1938 -0.0989,-0.38015 -0.252121,-0.35065 -0.049,0.009 -0.229875,0.24825 -0.401912,0.53068 -0.286421,0.47021 -0.538292,0.82213 -1.116335,1.55973 -0.502203,0.64081 -0.614498,1.06464 -0.383053,1.44564 0.251536,0.41408 0.205638,0.41508 0.445977,-0.01 z m -0.489814,-1.15579 c 0.490705,-1.17227 0.632642,-2.78967 0.2075,-2.36453 -0.512894,0.5129 -0.983085,2.04401 -0.753746,2.4545 0.313247,0.56066 0.270987,0.56762 0.546246,-0.09 z m 2.78458,0.49134 c 0.122916,-0.0658 0.149163,-0.27992 0.03431,-0.27992 -0.09677,0 -0.33267,0.25035 -0.282848,0.30017 0.05321,0.0533 0.121709,0.0477 0.248533,-0.0202 z m -3.724749,-0.81552 c 0,-0.0155 -0.01269,-0.0282 -0.02817,-0.0282 -0.01555,0 -0.02817,0.0127 -0.02817,0.0282 0,0.0154 0.0127,0.0282 0.02817,0.0282 0.01555,0 0.02817,-0.0127 0.02817,-0.0282 z m 3.74604,-0.66092 c 0.103793,-0.14818 0.116274,-0.3821 0.0204,-0.3821 -0.106696,0 -0.383653,0.29252 -0.383653,0.40519 0,0.1491 0.253976,0.13295 0.363275,-0.0231 z m 2.703041,-1.14993 c 0.15897,-0.23395 0.147586,-0.29282 -0.124064,-0.64166 -0.424243,-0.54479 -0.925633,-1.01182 -1.027649,-0.95722 -0.05799,0.031 -0.168092,0.0308 -0.277912,-7.1e-4 -0.414265,-0.11881 -0.05699,0.45802 0.451575,0.72909 0.355108,0.18926 0.592343,0.47335 0.74284,0.88953 0.08193,0.22658 0.06754,0.22775 0.23521,-0.0189 z m 0.368239,-0.60604 c 0.16439,-0.26597 0.190325,-0.21986 -0.589783,-1.04854 -0.38893,-0.41314 -0.770842,-0.85985 -0.848687,-0.99268 -0.130069,-0.22195 -0.413053,-0.36235 -0.730316,-0.36235 -0.28652,0 0.02247,0.45326 0.897539,1.3165 0.507622,0.50077 0.969768,0.99295 1.026986,1.09373 0.125982,0.22188 0.102623,0.22252 0.244261,-0.006 z m 0.369622,-0.59662 c 0.04729,-0.0915 0.08601,-0.17525 0.08601,-0.18616 0,-0.0109 -0.189455,-0.27064 -0.42102,-0.57723 -0.231843,-0.30693 -0.488551,-0.72362 -0.571317,-0.92733 -0.315636,-0.77689 -1.151292,-1.28636 -1.080551,-0.65879 0.08268,0.73361 1.782843,2.74406 1.986876,2.34951 z m -11.11611,7.85606 c -0.07391,-0.15626 -0.152405,-0.23 -0.285204,-0.26795 -0.230794,-0.066 -0.233391,-0.12884 -0.0074,-0.17848 0.135153,-0.0297 0.197155,-0.0894 0.267804,-0.2576 0.114489,-0.27273 0.138619,-0.27305 0.244594,-0.004 0.06702,0.17065 0.122948,0.22445 0.262258,0.25231 0.228988,0.0458 0.226156,0.13514 -0.0062,0.1949 -0.136366,0.0351 -0.198158,0.0925 -0.241579,0.2244 -0.08764,0.26626 -0.122748,0.27161 -0.234339,0.0357 z m 0.19631,-0.47109 c -0.08974,-0.14368 -0.112407,-0.14331 -0.204001,0.004 -0.112431,0.18003 0.07806,0.39364 0.19814,0.2222 0.06337,-0.0905 0.06444,-0.13175 0.0059,-0.22554 z m 15.827781,-0.50258 c -0.04272,-0.19455 -0.110162,-0.25878 -0.325693,-0.31028 -0.209619,-0.0501 -0.19509,-0.12568 0.03894,-0.20294 0.146524,-0.0484 0.209733,-0.11156 0.258084,-0.25808 0.07841,-0.2376 0.147301,-0.24776 0.195389,-0.0288 0.04251,0.19353 0.1135,0.26239 0.32535,0.31556 0.172544,0.0433 0.210125,0.13936 0.05449,0.13936 -0.162735,0 -0.342119,0.15914 -0.361227,0.32045 -0.02497,0.21063 -0.141175,0.22612 -0.185403,0.0247 z m 0.189241,-0.52087 c -0.105084,-0.10509 -0.114178,-0.10543 -0.242071,-0.009 -0.13288,0.10016 -0.13288,0.10016 -0.01256,0.21679 0.118557,0.11496 0.122031,0.11509 0.242072,0.009 0.120461,-0.10643 0.120596,-0.10879 0.01256,-0.2168 z M 53.743996,131.651 c -0.04078,-0.13855 -0.09939,-0.19729 -0.237384,-0.23792 -0.100781,-0.0297 -0.183235,-0.0815 -0.183235,-0.1152 0,-0.0337 0.08246,-0.0856 0.183235,-0.11519 0.137992,-0.0406 0.196602,-0.0994 0.237384,-0.23792 0.06444,-0.21893 0.160098,-0.20962 0.200045,0.0195 0.02132,0.12233 0.07327,0.17894 0.202604,0.22087 0.225558,0.0731 0.235122,0.15798 0.02396,0.21271 -0.125545,0.0325 -0.179811,0.0886 -0.214277,0.22168 -0.0625,0.24121 -0.14692,0.25373 -0.212339,0.0315 z m 0.199557,-0.4411 c -0.07663,-0.0797 -0.09615,-0.0797 -0.207936,0 -0.123365,0.088 -0.123365,0.088 -0.0062,0.17875 0.164557,0.12749 0.355376,-0.0318 0.214132,-0.17875 z m 17.355511,0.28261 c -0.04322,-0.12385 -0.105953,-0.18105 -0.224789,-0.20482 -0.18964,-0.0379 -0.185489,-0.1413 0.0076,-0.18687 0.129884,-0.0307 0.188321,-0.10063 0.250396,-0.29983 0.03802,-0.12213 0.145411,-0.0733 0.145411,0.0662 0,0.13586 0.110783,0.23346 0.264988,0.23346 0.186708,0 0.16051,0.14888 -0.03303,0.18758 -0.116523,0.0233 -0.179682,0.0813 -0.222585,0.20438 -0.03296,0.0945 -0.07524,0.17183 -0.09396,0.17183 -0.01868,0 -0.06098,-0.0773 -0.09396,-0.17183 z m 0.178528,-0.39195 c -0.07518,-0.0752 -0.09446,-0.0752 -0.17357,0 -0.08012,0.0761 -0.08034,0.0932 -0.0022,0.17138 0.07811,0.0782 0.09541,0.0782 0.173578,0 0.07716,-0.0772 0.07741,-0.0962 0.0022,-0.17138 z m -11.367175,-2.57937 c -0.05314,-0.22257 -0.120568,-0.28831 -0.337248,-0.32896 -0.254083,-0.0477 -0.242285,-0.1182 0.03217,-0.1921 0.195539,-0.0526 0.231422,-0.0886 0.284068,-0.28407 0.07183,-0.26673 0.145832,-0.28705 0.197001,-0.0541 0.04779,0.21774 0.169362,0.33769 0.342176,0.33769 0.08413,0 0.136924,0.0326 0.136924,0.0846 0,0.0465 -0.04508,0.0846 -0.10022,0.0846 -0.163171,0 -0.33923,0.15716 -0.379023,0.33834 -0.04643,0.21124 -0.127173,0.21767 -0.175825,0.0141 z m 0.194626,-0.32922 c 0.101767,-0.0871 0.101567,-0.0931 -0.0074,-0.21538 -0.112024,-0.12577 -0.112024,-0.12577 -0.234497,-0.009 -0.122472,0.11672 -0.122472,0.11672 -0.0064,0.21412 0.14218,0.11899 0.122009,0.11815 0.247948,0.0104 z m 14.687409,0.20034 c -0.03866,-0.19354 -0.207771,-0.33625 -0.398339,-0.33625 -0.179298,0 -0.160695,-0.10294 0.02667,-0.14744 0.214284,-0.0509 0.333504,-0.167 0.372676,-0.36287 0.03373,-0.1689 0.148835,-0.2341 0.148835,-0.0843 0,0.18298 0.137665,0.37235 0.301585,0.41482 0.191402,0.0496 0.271293,0.17982 0.110319,0.17982 -0.168806,0 -0.337954,0.15172 -0.374858,0.33625 -0.01883,0.0941 -0.06084,0.17116 -0.09343,0.17116 -0.03259,0 -0.0746,-0.077 -0.09343,-0.17116 z m 0.207371,-0.28105 c 0.113943,-0.11395 0.113943,-0.11395 -0.02817,-0.26724 -0.110562,-0.11924 -0.14213,-0.13212 -0.14213,-0.058 0,0.0525 -0.04151,0.1185 -0.09217,0.14687 -0.08397,0.047 -0.08272,0.0618 0.01405,0.16724 0.133814,0.14565 0.11472,0.1448 0.248399,0.0111 z m -8.880963,-2.12321 c -1.044504,-0.17953 -1.503661,-0.60605 -1.093725,-1.01599 0.04515,-0.0451 0.03017,-0.0722 -0.05493,-0.0992 -0.17917,-0.0569 -0.345422,-0.30584 -0.345422,-0.51729 0,-0.13017 -0.02632,-0.18972 -0.08367,-0.18972 -0.465505,0 -0.669282,-0.92277 -0.218925,-0.99135 0.530026,-0.0807 1.497021,0.19657 2.076953,0.59558 0.249982,0.17199 0.255309,0.17301 0.255309,0.0492 0,-0.14761 -0.255565,-0.53738 -0.404657,-0.61717 -0.121389,-0.065 -0.136025,-0.16379 -0.02425,-0.16379 0.04322,0 0.175239,0.12685 0.293483,0.2819 0.24523,0.32156 0.304302,0.34613 0.305186,0.12686 7.14e-4,-0.27148 0.06855,-0.5779 0.127266,-0.5779 0.03666,0 0.04308,0.16811 0.01826,0.47433 -0.03952,0.4874 0.01219,0.64827 0.127201,0.39578 0.305338,-0.67014 1.338893,-1.54666 1.823748,-1.54666 0.215867,0 0.239155,0.55828 0.03417,0.81888 -0.08124,0.10328 -0.139034,0.28308 -0.1678,0.52204 -0.04908,0.40752 -0.237698,0.72019 -0.46962,0.7784 -0.131382,0.0329 -0.132887,0.039 -0.04365,0.17527 0.2224,0.33943 -0.724652,1.5464 -1.053775,1.34299 -0.02767,-0.0172 -0.06633,-0.005 -0.08579,0.0262 -0.05378,0.087 -0.132494,0.0691 -0.237914,-0.054 -0.08346,-0.0975 -0.106396,-0.10124 -0.184747,-0.0303 -0.129848,0.11751 -0.461889,0.23853 -0.592735,0.21604 z m 0.467131,-0.34222 c 0.276607,-0.39586 0.212379,-1.11297 -0.09488,-1.05916 -0.538579,0.0944 -1.29567,0.37089 -1.332424,0.48669 -0.106317,0.33498 0.08371,0.61476 0.417532,0.61476 0.09324,0 0.185197,0.0254 0.204362,0.0563 0.08558,0.13847 0.691585,0.0642 0.805406,-0.0987 z m 1.286576,-0.44955 c 0.05349,-0.1171 0.148535,-0.27036 0.211273,-0.34058 0.183769,-0.20568 0.07505,-0.43109 -0.218256,-0.45253 -0.405378,-0.0296 -0.676886,0.0589 -0.66643,0.21723 0.005,0.0756 0.01448,0.34294 0.02111,0.5941 0.01355,0.513 0.414857,0.50179 0.652278,-0.0182 z m -2.097053,-0.62907 c 0.245273,-0.0657 0.543378,-0.11945 0.662456,-0.11945 0.266621,0 0.290308,-0.12915 0.0714,-0.38929 -0.44067,-0.52371 -2.279225,-1.00852 -2.279225,-0.60101 0,0.24712 0.106796,0.42978 0.298005,0.50967 0.156295,0.0654 0.197678,0.12338 0.259318,0.36388 0.113185,0.44163 0.170125,0.45524 0.988042,0.2362 z m 2.457581,-0.4481 c 0.249882,-0.0478 0.394444,-0.31117 0.394572,-0.71863 6.4e-5,-0.23228 0.0266,-0.3111 0.141032,-0.41858 0.301186,-0.28295 0.196522,-0.69341 -0.141039,-0.55312 -0.64506,0.26808 -1.638951,1.46416 -1.505544,1.81182 0.02868,0.0747 0.164911,0.0597 1.110979,-0.12149 z m -10.915279,1.18845 c -0.06334,-0.20495 -0.122722,-0.26833 -0.267649,-0.28564 -0.201937,-0.0241 -0.186295,-0.13289 0.03388,-0.23587 0.108021,-0.0505 0.193284,-0.13964 0.211757,-0.22134 0.04572,-0.20244 0.137658,-0.19946 0.199177,0.006 0.04137,0.13841 0.09748,0.19229 0.237385,0.22787 0.234561,0.0597 0.231764,0.11594 -0.01006,0.2034 -0.143599,0.0519 -0.202764,0.11285 -0.230003,0.23685 -0.0408,0.18565 -0.127708,0.21966 -0.174491,0.0682 z m 0.18208,-0.32324 c 0.07392,-0.0739 0.07018,-0.0981 -0.03224,-0.20796 -0.0923,-0.0991 -0.11584,-0.10593 -0.11584,-0.0339 0,0.0497 -0.03174,0.10117 -0.07047,0.11422 -0.05492,0.0185 -0.05342,0.0443 0.0071,0.11745 0.09456,0.11456 0.106617,0.11513 0.211629,0.0101 z m 14.611839,-2.94678 c -0.04179,-0.0875 -0.129127,-0.1629 -0.200402,-0.17306 -0.167936,-0.024 -0.160354,-0.11278 0.01534,-0.17956 0.0779,-0.0297 0.170767,-0.1178 0.206372,-0.19595 0.08389,-0.18411 0.120705,-0.1791 0.198521,0.0271 0.04279,0.11351 0.102544,0.16914 0.181495,0.16914 0.161972,0 0.148634,0.14914 -0.01705,0.19072 -0.08164,0.0205 -0.148699,0.0895 -0.170211,0.17525 -0.04622,0.18414 -0.121852,0.17934 -0.214033,-0.0136 z m 0.203735,-0.1966 c 0.06177,-0.0577 0.05956,-0.0808 -0.01263,-0.1336 -0.116838,-0.0855 -0.248727,0.0229 -0.156481,0.12864 0.07754,0.0888 0.0793,0.0888 0.169112,0.005 z m -8.730118,-2.10672 c -0.02325,-0.0928 -0.09816,-0.16995 -0.203442,-0.20969 -0.203833,-0.0769 -0.21103,-0.13681 -0.02497,-0.20756 0.0779,-0.0297 0.170775,-0.11779 0.206373,-0.19593 0.08303,-0.18225 0.135483,-0.17926 0.227328,0.013 0.0418,0.0875 0.129121,0.1629 0.200404,0.17306 0.164191,0.0234 0.163791,0.16616 -4.64e-4,0.18949 -0.0797,0.0114 -0.156831,0.0861 -0.207507,0.20125 -0.09752,0.22156 -0.148842,0.23102 -0.197679,0.0365 z M 63.975,119.34047 c -0.049,-0.059 -0.0845,-0.0605 -0.170789,-0.006 -0.101025,0.0631 -0.102032,0.0729 -0.01391,0.13747 0.126246,0.0924 0.279731,-0.0163 0.184704,-0.13086 z m 7.44621,27.4336 c 0,-0.031 -0.02539,-0.0563 -0.05635,-0.0563 -0.03102,0 -0.05634,0.0254 -0.05634,0.0563 0,0.031 0.02539,0.0563 0.05634,0.0563 0.03102,0 0.05635,-0.0254 0.05635,-0.0563 z m 0.06376,-0.18843 c -0.03459,-0.0416 -0.05057,-0.0926 -0.03559,-0.11321 0.01498,-0.0207 -7.13e-4,-0.0142 -0.03502,0.0144 -0.06919,0.0577 -0.02004,0.17451 0.07345,0.17451 0.04094,0 0.04001,-0.0239 -0.0029,-0.0756 z m -2.939127,-0.17804 c 0,-0.0154 -0.0127,-0.0282 -0.02817,-0.0282 -0.01548,0 -0.02817,0.0127 -0.02817,0.0282 0,0.0154 0.0127,0.0282 0.02817,0.0282 0.01555,0 0.02817,-0.0127 0.02817,-0.0282 z m 5.214444,-0.43235 c 0.166046,-0.19733 0.189255,-0.52413 0.05557,-0.78261 -0.111688,-0.216 -0.146474,-0.20934 -0.2716,0.052 -0.05713,0.11934 -0.164975,0.28287 -0.23961,0.36335 -0.17377,0.1874 -0.170746,0.28019 0.01854,0.57079 0.154298,0.23682 0.154298,0.23682 0.224853,0.10081 0.0388,-0.0748 0.134292,-0.21175 0.212171,-0.30431 z m 0.0903,0.16918 c 0.08927,-0.16681 0.01334,-0.11859 -0.125882,0.0799 -0.09116,0.13 -0.09957,0.16002 -0.02896,0.1033 0.05478,-0.044 0.12442,-0.12642 0.154827,-0.18323 z m 0.107694,-0.18786 c 0,-0.0154 -0.0127,-0.0282 -0.02817,-0.0282 -0.01555,0 -0.02817,0.0127 -0.02817,0.0282 0,0.0155 0.0127,0.0282 0.02817,0.0282 0.01548,0 0.02817,-0.0127 0.02817,-0.0282 z m -0.620174,-0.59199 c 0.06327,-0.12403 0.101474,-0.22553 0.08488,-0.22553 -0.03659,0 -0.253518,0.34933 -0.253811,0.40876 -4.64e-4,0.0956 0.06034,0.0295 0.168927,-0.18323 z m -2.745451,-0.38124 c 0.384158,-0.20908 0.82358,-0.73628 0.504363,-0.60512 -0.46072,0.18932 -1.307908,0.32712 -1.719578,0.2797 -0.509427,-0.0587 -0.381462,-0.12222 0.310088,-0.15395 1.217597,-0.0559 1.728579,-0.30246 1.195778,-0.57706 -0.582986,-0.30048 -0.907859,-0.25664 -1.944074,0.26229 -0.848901,0.42513 -0.848901,0.42513 -0.252785,0.66256 0.968878,0.38592 1.385996,0.41471 1.906208,0.13158 z m 5.771154,-0.3329 c -0.02069,-0.0207 -0.03759,-0.004 -0.03759,0.0376 0,0.0413 0.01691,0.0583 0.03759,0.0375 0.02068,-0.0207 0.02068,-0.0545 0,-0.0752 z m -0.279197,-0.95575 c -0.05407,-0.0541 -0.214825,0.0933 -0.173948,0.15944 0.02033,0.0329 0.07018,0.0195 0.12288,-0.0332 0.04879,-0.0487 0.07173,-0.10554 0.05107,-0.1262 z m -1.387279,-2.11555 c 0.493722,-0.21239 0.884214,-0.77003 0.487203,-0.69575 -0.327613,0.0613 -1.290648,0.11623 -1.31609,0.0751 -0.04279,-0.0692 0.04672,-0.0885 0.59725,-0.12839 0.901418,-0.0653 0.982123,-0.0965 0.676558,-0.26163 -0.646672,-0.34939 -1.53334,-0.18562 -2.526504,0.46665 -0.46865,0.30778 -0.46865,0.30778 -0.235231,0.31692 0.128379,0.005 0.453445,0.0838 0.722356,0.17493 0.268918,0.0912 0.539683,0.1785 0.601694,0.19405 0.20409,0.0512 0.713026,-0.0215 0.992764,-0.14186 z m 5.432294,-1.26052 c 1.610836,-2.09399 -0.954522,-3.78619 -0.955992,-0.8457 0.129623,0.91313 0.270574,1.79118 0.955992,0.8457 z m -7.210423,0.36007 c 0.06091,-0.0985 0.522224,-0.28708 0.954078,-0.3899 0.394222,-0.0939 0.394222,-0.0939 0,-0.13231 -0.784565,-0.0765 -1.81566,0.26982 -1.380874,0.46381 0.297954,0.13294 0.37428,0.14338 0.426796,0.0584 z m 6.215006,-0.18935 c 0.0485,-0.10644 0.04565,-0.18993 -0.01205,-0.35351 -0.119519,-0.33874 -0.160581,-0.77055 -0.09565,-1.00573 0.03259,-0.11805 0.04879,-0.22514 0.03594,-0.23796 -0.01284,-0.0128 -0.06712,0.12528 -0.120612,0.30691 -0.185702,0.63042 -0.01833,1.75282 0.192379,1.29029 z m 0.01098,-1.69297 c 0,-0.0154 -0.0127,-0.0282 -0.02817,-0.0282 -0.01548,0 -0.02817,0.0127 -0.02817,0.0282 0,0.0367 0.05634,0.0369 0.05634,0 z m -3.101429,-0.61951 c 0.05663,-0.0682 0.05157,-0.0908 -0.02696,-0.12098 -0.0986,-0.0379 -0.214547,0.0761 -0.16275,0.1599 0.0423,0.0685 0.112573,0.0541 0.189726,-0.0389 z m 0.866761,-0.16949 c -0.01776,-0.0464 -0.05506,-0.0701 -0.0828,-0.0531 -0.0796,0.0492 -0.05884,0.13731 0.03231,0.13731 0.05029,0 0.07011,-0.0331 0.0505,-0.0842 z m 5.89934,-2.19912 c 0,-0.047 -0.05014,-0.0846 -0.112759,-0.0846 -0.112323,0 -0.146652,0.06 -0.07517,0.13156 0.06868,0.0687 0.187936,0.0388 0.187936,-0.047 z m -0.676557,-0.0282 c 0,-0.0311 -0.02682,-0.0563 -0.0597,-0.0563 -0.03281,0 -0.044,0.0254 -0.02482,0.0563 0.01919,0.031 0.04601,0.0563 0.0597,0.0563 0.01362,0 0.02482,-0.0254 0.02482,-0.0563 z m -6.10455,-0.56819 c 2.191352,-0.86739 3.196027,-1.74576 3.272859,-2.86143 0.03994,-0.58019 -0.04073,-0.64353 -0.294931,-0.23162 -0.234068,0.37922 -0.969961,1.28212 -1.150307,1.41137 -0.06084,0.0436 -0.253483,0.20377 -0.428117,0.35595 -0.212079,0.18481 -0.336264,0.25793 -0.373995,0.2202 -0.03773,-0.0377 0.0465,-0.13593 0.253647,-0.29575 0.969598,-0.74803 2.042603,-2.20261 1.624815,-2.20261 -1.199636,0 -2.156039,0.75034 -2.551161,2.00147 -0.110097,0.34862 -0.527344,1.27104 -0.695265,1.53704 -0.08294,0.13141 -0.138471,0.23891 -0.123387,0.23891 0.01512,0 0.224711,-0.0781 0.465842,-0.17353 z m 6.55559,0.005 c 0.07288,-0.0471 0.07139,-0.0548 -0.01077,-0.0555 -0.05243,-4.7e-4 -0.111018,0.0246 -0.130184,0.0555 -0.04407,0.0713 0.03053,0.0713 0.140954,0 z m -1.309656,-0.49684 c 0.01227,-0.0368 -0.01784,-0.067 -0.06698,-0.067 -0.04907,0 -0.08927,0.0402 -0.08927,0.0893 0,0.0996 0.121375,0.0822 0.156217,-0.0223 z m 0.604911,-0.57437 c -0.01919,-0.031 -0.0602,-0.0563 -0.09123,-0.0563 -0.03102,0 -0.04073,0.0254 -0.02154,0.0563 0.01919,0.0311 0.0602,0.0563 0.09123,0.0563 0.03102,0 0.04066,-0.0254 0.02154,-0.0563 z m -0.36647,-0.59198 c 0,-0.0955 -0.0099,-0.0989 -0.14106,-0.0485 -0.07491,0.0287 -0.0787,0.0457 -0.01876,0.0837 0.111132,0.0705 0.159769,0.0597 0.159769,-0.0351 z m -0.112758,0 c 0,-0.0155 0.0127,-0.0282 0.02817,-0.0282 0.01555,0 0.02817,0.0127 0.02817,0.0282 0,0.0155 -0.0127,0.0282 -0.02817,0.0282 -0.01548,0 -0.02817,-0.0127 -0.02817,-0.0282 z m -0.256115,-0.5317 c 0.04643,-0.0751 -0.07054,-0.13319 -0.181952,-0.0904 -0.08123,0.0311 -0.08281,0.0435 -0.01141,0.0887 0.105776,0.0669 0.152808,0.0673 0.193342,0.002 z m -31.056731,-2.2508 c 1.136641,-0.39569 1.534337,-0.90237 2.020187,-2.57381 0.212328,-0.73046 0.429269,-1.37196 0.586618,-1.73464 0.01063,-0.0246 -0.09085,0.0277 -0.225519,0.11595 -0.13467,0.0883 -0.620974,0.37444 -1.080676,0.6359 -1.76016,1.0011 -2.408257,1.7763 -2.406573,2.87855 0.0012,0.75206 0.03898,0.79389 0.293625,0.32461 0.552601,-1.0184 2.187646,-2.87501 2.187646,-2.48409 0,0.0256 -0.163274,0.19061 -0.362829,0.36689 -0.627713,0.55454 -1.69922,1.99879 -1.860937,2.50831 -0.05678,0.17893 0.26764,0.16451 0.848458,-0.0376 z m -2.684019,-0.28441 c 0,-0.0692 -0.158838,-0.12469 -0.193991,-0.0678 -0.01565,0.0253 -0.01224,0.0623 0.0076,0.0821 0.05373,0.0537 0.186399,0.0436 0.186399,-0.0144 z m -0.11276,-0.71077 c -0.07767,-0.0936 -0.313242,-0.1143 -0.364095,-0.032 -0.01786,0.0289 0.03772,0.0631 0.123526,0.0761 0.315597,0.0478 0.316602,0.0475 0.240569,-0.044 z m 0.337415,-0.21143 c 9.93e-4,-0.17302 -0.06198,-0.19855 -0.169661,-0.0688 -0.05677,0.0684 -0.0574,0.11737 -0.003,0.23667 0.08108,0.17797 0.171253,0.0903 0.172691,-0.16786 z m 32.249961,-0.2396 c 0,-0.0155 -0.0127,-0.0282 -0.02817,-0.0282 -0.01555,0 -0.02817,0.0127 -0.02817,0.0282 0,0.0154 0.01269,0.0282 0.02817,0.0282 0.01548,0 0.02817,-0.0127 0.02817,-0.0282 z m -32.31958,-0.23023 c -0.05373,-0.0537 -0.161443,0.0333 -0.121403,0.0981 0.0238,0.0385 0.05533,0.0375 0.09583,-0.003 0.03319,-0.0332 0.0447,-0.076 0.02558,-0.0951 z m -0.511179,-0.59785 c -0.018,-0.045 -0.03137,-0.0316 -0.03406,0.034 -0.0025,0.0594 0.01088,0.0927 0.02962,0.074 0.01873,-0.0188 0.02074,-0.0673 0.0045,-0.10806 z m -0.785543,-0.11628 c -0.01292,-0.0387 -0.05732,-0.0705 -0.09866,-0.0705 -0.04135,0 -0.08574,0.0318 -0.09866,0.0705 -0.01397,0.042 0.026,0.0705 0.09866,0.0705 0.07267,0 0.112638,-0.0286 0.09866,-0.0705 z m -0.305878,-0.47404 c 0.04268,-0.0427 -0.06403,-0.18842 -0.137967,-0.18842 -0.02722,0 -0.04948,0.0507 -0.04948,0.11276 0,0.10833 0.110258,0.15285 0.187443,0.0756 z m 33.734002,-0.31528 c -0.01562,-0.0387 -0.02846,-0.007 -0.02846,0.0705 0,0.0775 0.01276,0.10923 0.02846,0.0705 0.01569,-0.0387 0.01569,-0.10218 0,-0.14095 z m -0.06155,-0.39466 c -1.050409,-8.02779 -10.167888,-13.52739 -18.806567,-11.34397 -1.289877,0.32603 -1.381594,0.39352 -0.192549,0.1417 8.181674,-1.73269 16.801815,3.38683 18.909624,11.23047 0.09507,0.35377 0.137709,0.34034 0.08949,-0.0282 z M 48.29136,126.47371 c 0.489971,-0.96965 0.474863,-1.57007 -0.06251,-2.48443 -0.205873,-0.35029 -0.374314,-0.59243 -0.374314,-0.53807 0,0.0543 -0.145883,0.38336 -0.324183,0.73111 -0.520013,1.01421 -0.443302,1.89458 0.217071,2.49118 0.285041,0.25753 0.319187,0.24499 0.543938,-0.19979 z m 0.502585,-1.1376 c -0.01564,-0.0387 -0.02843,-0.007 -0.02843,0.0705 0,0.0775 0.0128,0.10924 0.02843,0.0705 0.01564,-0.0387 0.01564,-0.10219 0,-0.14095 z m 0.06296,-0.71717 c -0.03592,-0.59784 -0.329006,-1.20756 -0.431362,-0.89742 -0.05872,0.17791 -0.04848,0.22706 0.107017,0.51416 0.09457,0.17459 0.201255,0.47776 0.23709,0.6737 0.07899,0.43192 0.122053,0.2886 0.08726,-0.29044 z m 1.932344,0.36478 c -0.0044,-0.0837 -0.130553,-0.0683 -0.159816,0.0195 -0.01581,0.0474 0.01,0.0685 0.06875,0.0563 0.05172,-0.0108 0.0927,-0.0449 0.09106,-0.0758 z m -0.115736,-0.53893 c 0,-0.0292 -0.02537,-0.0531 -0.05638,-0.0531 -0.03102,0 -0.05639,0.0396 -0.05639,0.0879 0,0.0484 0.02537,0.0722 0.05639,0.0531 0.03101,-0.0192 0.05638,-0.0587 0.05638,-0.0879 z m -0.413451,-0.99271 c -0.02068,-0.0207 -0.03759,-0.004 -0.03759,0.0376 0,0.0413 0.01692,0.0583 0.03759,0.0375 0.02068,-0.0207 0.02068,-0.0545 0,-0.0752 z m 2.61225,-0.15973 c 0,-0.0155 -0.01268,-0.0282 -0.0282,-0.0282 -0.01552,0 -0.0282,0.0127 -0.0282,0.0282 0,0.0154 0.01268,0.0282 0.0282,0.0282 0.01552,0 0.0282,-0.0127 0.0282,-0.0282 z m 3.119806,-1.60267 c 0.329014,-0.12864 0.329014,-0.12864 0.05638,-0.25567 -0.272636,-0.12705 -0.272636,-0.12705 -0.547148,0.0102 -0.220853,0.11041 -0.716488,0.25017 -1.0786,0.30412 -0.03102,0.005 0.03242,0.0284 0.140951,0.0525 0.366265,0.082 1.075572,0.0267 1.428416,-0.11123 z m -0.94012,-0.21991 c 0.681722,-0.21329 1.443718,-0.76344 1.118519,-0.80757 -0.155044,-0.021 -0.520811,-0.11653 -0.812821,-0.2122 -0.955982,-0.31324 -1.560267,-0.19668 -1.971117,0.38018 -0.107257,0.1506 -0.107257,0.1506 0.661784,0.1506 0.422974,0 0.781732,0.0206 0.797237,0.0456 0.01552,0.0251 -0.306729,0.0504 -0.716071,0.0563 -0.974307,0.0141 -1.093277,0.11925 -0.428845,0.37885 0.35336,0.13807 0.925084,0.14153 1.351314,0.008 z m -4.660384,-0.0943 c 0,-0.0155 -0.01269,-0.0282 -0.02819,-0.0282 -0.01551,0 -0.02819,0.0127 -0.02819,0.0282 0,0.0155 0.01269,0.0282 0.02819,0.0282 0.01551,0 0.02819,-0.0127 0.02819,-0.0282 z m -0.804582,-0.34415 c -0.01873,-0.0187 -0.06736,-0.0207 -0.108062,-0.005 -0.04498,0.018 -0.03162,0.0314 0.03407,0.034 0.05944,0.002 0.09273,-0.0108 0.074,-0.0296 z m -0.16383,-0.6801 c -0.02743,-0.14144 -0.159178,-0.16087 -0.159178,-0.0235 0,0.0692 0.0364,0.11745 0.0887,0.11745 0.0525,0 0.08127,-0.0384 0.07048,-0.094 z m 2.341527,-0.15266 c 4.629233,-3.2234 0,0 0,0 z m -0.477205,-0.46264 c -0.119531,-0.64087 0.0072,-1.15692 0.409673,-1.66846 0.139981,-0.17791 0.157878,-0.23909 0.126799,-0.43346 -0.03619,-0.22631 -0.03619,-0.22631 -0.228243,0.038 -0.449627,0.6188 -0.554474,1.22944 -0.363188,2.11522 0.0919,0.42556 0.13619,0.38422 0.05495,-0.0513 z m 8.02051,-1.17942 c 0,-0.0294 -0.02725,-0.0626 -0.06063,-0.0738 -0.03338,-0.0111 -0.06063,0.022 -0.06063,0.0738 0,0.0517 0.02725,0.0849 0.06063,0.0738 0.03338,-0.0111 0.06063,-0.0443 0.06063,-0.0738 z m -0.06484,0 c 0,-0.0155 0.0127,-0.0282 0.02817,-0.0282 0.01555,0 0.02817,0.0127 0.02817,0.0282 0,0.0154 -0.0127,0.0282 -0.02817,0.0282 -0.01548,0 -0.02817,-0.0127 -0.02817,-0.0282 z m 0.902074,0 c 0,-0.0465 -0.03802,-0.0846 -0.08457,-0.0846 -0.0465,0 -0.08457,0.038 -0.08457,0.0846 0,0.0465 0.03802,0.0846 0.08457,0.0846 0.0465,0 0.08457,-0.038 0.08457,-0.0846 z m -2.324481,-0.15153 c -0.03481,-0.10453 -0.156217,-0.12187 -0.156217,-0.0223 0,0.0491 0.04016,0.0893 0.08926,0.0893 0.04907,0 0.07923,-0.0301 0.06698,-0.067 z m 0.09749,-0.6096 c 0.01919,-0.0311 -0.005,-0.0563 -0.05307,-0.0563 -0.04835,0 -0.08789,0.0254 -0.08789,0.0563 0,0.031 0.02389,0.0564 0.05307,0.0564 0.02917,0 0.06876,-0.0254 0.08789,-0.0564 z m 0.845698,0 c 0.01912,-0.0311 -0.0189,-0.0563 -0.08457,-0.0563 -0.06569,0 -0.103736,0.0254 -0.08457,0.0563 0.01919,0.031 0.0572,0.0564 0.08457,0.0564 0.02739,0 0.06541,-0.0254 0.08457,-0.0564 z m -2.707811,-0.58768 c 0.312654,-0.13064 0.689387,-0.52392 0.997713,-1.04155 0.158885,-0.26675 0.33637,-0.56484 0.394415,-0.66242 0.105541,-0.17743 0.105541,-0.17743 -0.501938,-0.0487 -1.18494,0.25095 -1.679264,0.64955 -1.849674,1.49146 -0.03929,0.19407 -0.03929,0.19407 0.371452,-0.1808 0.53233,-0.48585 1.274209,-1.01901 1.351484,-0.97126 0.03424,0.0212 -0.08123,0.13728 -0.266109,0.26755 -0.644304,0.45402 -1.338181,1.08373 -1.286423,1.16748 0.05292,0.0857 0.565969,0.0715 0.78908,-0.0217 z m 3.675654,-1.02853 c -0.02068,-0.0207 -0.05449,-0.0207 -0.07517,0 -0.02068,0.0207 -0.0036,0.0376 0.03759,0.0376 0.04137,0 0.05828,-0.0169 0.03759,-0.0376 z m 21.837683,19.31939 c -0.141959,-0.14195 -0.142138,-0.23449 -7.14e-4,-0.40251 0.111995,-0.13309 0.111995,-0.13309 0.224269,0.008 0.246351,0.30927 0.04557,0.66375 -0.223498,0.39466 z m 0.169133,-0.16914 c 0,-0.0311 -0.02539,-0.0563 -0.05634,-0.0563 -0.03102,0 -0.05635,0.0254 -0.05635,0.0563 0,0.031 0.02539,0.0563 0.05635,0.0563 0.03095,0 0.05634,-0.0254 0.05634,-0.0563 z"
         id="path1" /><path
         style="fill:#455058;fill-opacity:1;stroke:#455058;stroke-width:0.28672;stroke-linecap:round;stroke-dasharray:none;stroke-opacity:1"
         d="m 172.40218,141.79621 h 12.89636"
         id="path2-8"
         sodipodi:nodetypes="cc" /><path
         style="fill:#455058;fill-opacity:1;stroke:#455058;stroke-width:0.28672;stroke-linecap:round;stroke-dasharray:none;stroke-opacity:1"
         d="M 85.5638,141.79621 H 96.942985"
         id="path2-8-1"
         sodipodi:nodetypes="cc" /></g></g></svg>
