<?xml version="1.0" encoding="UTF-8" standalone="no"?>
<!-- Created with Inkscape (http://www.inkscape.org/) -->

<svg
   version="1.1"
   id="svg1"
   width="185.99991"
   height="45.425064"
   viewBox="0 0 185.99991 45.425064"
   sodipodi:docname="glosse_gray_sm.svg"
   inkscape:version="1.4.2 (f4327f4, 2025-05-13)"
   xmlns:inkscape="http://www.inkscape.org/namespaces/inkscape"
   xmlns:sodipodi="http://sodipodi.sourceforge.net/DTD/sodipodi-0.dtd"
   xmlns="http://www.w3.org/2000/svg"
   xmlns:svg="http://www.w3.org/2000/svg">
  <defs
     id="defs1">
    <clipPath
       clipPathUnits="userSpaceOnUse"
       id="clipPath1">
      <rect
         style="fill:#ffffff;fill-opacity:0.94717"
         id="rect2"
         width="391.51413"
         height="106.45397"
         x="44.947239"
         y="174.46626" />
    </clipPath>
    <clipPath
       clipPathUnits="userSpaceOnUse"
       id="clipPath2">
      <rect
         style="fill:#ffffff;fill-opacity:0.94717"
         id="rect3"
         width="391.51413"
         height="106.45397"
         x="44.947239"
         y="174.46626" />
    </clipPath>
    <clipPath
       clipPathUnits="userSpaceOnUse"
       id="clipPath10">
      <rect
         style="fill:#ffffff;fill-opacity:0.94717"
         id="rect11"
         width="36.667484"
         height="24.839264"
         x="388.55704"
         y="177.42331" />
    </clipPath>
    <filter
       style="color-interpolation-filters:sRGB"
       inkscape:label="Lightness-Contrast"
       id="filter11"
       x="0"
       y="0"
       width="1"
       height="1">
      <feColorMatrix
         values="3.77259 0 0 0.617017 -1.38629 0 3.77259 0 0.617017 -1.38629 0 0 3.77259 0.617017 -1.38629 0 0 0 1 0"
         id="feColorMatrix11"
         result="fbSourceGraphic" />
      <feColorMatrix
         result="fbSourceGraphicAlpha"
         in="fbSourceGraphic"
         values="0 0 0 -1 0 0 0 0 -1 0 0 0 0 -1 0 0 0 0 1 0"
         id="feColorMatrix12" />
      <feColorMatrix
         id="feColorMatrix13"
         values="3.77259 0 0 0.617017 -1.38629 0 3.77259 0 0.617017 -1.38629 0 0 3.77259 0.617017 -1.38629 0 0 0 1 0"
         in="fbSourceGraphic"
         result="fbSourceGraphic" />
      <feColorMatrix
         result="fbSourceGraphicAlpha"
         in="fbSourceGraphic"
         values="0 0 0 -1 0 0 0 0 -1 0 0 0 0 -1 0 0 0 0 1 0"
         id="feColorMatrix14" />
      <feColorMatrix
         id="feColorMatrix15"
         values="3.77259 0 0 0.617017 -1.38629 0 3.77259 0 0.617017 -1.38629 0 0 3.77259 0.617017 -1.38629 0 0 0 1 0"
         in="fbSourceGraphic"
         result="fbSourceGraphic" />
      <feColorMatrix
         result="fbSourceGraphicAlpha"
         in="fbSourceGraphic"
         values="0 0 0 -1 0 0 0 0 -1 0 0 0 0 -1 0 0 0 0 1 0"
         id="feColorMatrix16" />
      <feColorMatrix
         id="feColorMatrix17"
         values="3.77259 0 0 0.617017 -1.38629 0 3.77259 0 0.617017 -1.38629 0 0 3.77259 0.617017 -1.38629 0 0 0 1 0"
         in="fbSourceGraphic" />
    </filter>
  </defs>
  <sodipodi:namedview
     id="namedview1"
     pagecolor="#ffffff"
     bordercolor="#000000"
     borderopacity="0.25"
     inkscape:showpageshadow="2"
     inkscape:pageopacity="0.0"
     inkscape:pagecheckerboard="0"
     inkscape:deskcolor="#d1d1d1"
     inkscape:zoom="1"
     inkscape:cx="220"
     inkscape:cy="17.5"
     inkscape:window-width="1920"
     inkscape:window-height="1017"
     inkscape:window-x="-8"
     inkscape:window-y="-8"
     inkscape:window-maximized="1"
     inkscape:current-layer="svg1"
     showgrid="false" />
  <g
     id="g1"
     style="fill:#4d4d4d"
     transform="scale(0.48864572)">
    <path
       id="path23"
       style="fill:#4d4d4d"
       d="m 169.01172,21.189453 c -15.42637,0.234892 -30.80311,9.958467 -34.00195,29.982422 -2.97129,18.59959 6.71973,34.602074 24.27929,40.089844 21.97335,6.86719 44.64993,-11.132955 44.70313,-35.484375 0.0501,-22.932522 -17.49726,-34.854102 -34.98047,-34.587891 z m -1.38867,2.4375 c 5.65948,-0.183711 11.72826,2.897365 17.08007,9.914063 11.25671,14.75852 7.64646,47.033693 -5.98437,53.501953 -16.95985,8.04797 -31.21484,-6.259338 -31.21484,-31.330078 0,-19.485297 9.31467,-31.735217 20.11914,-32.085938 z" />
    <path
       style="fill:#4d4d4d"
       d="m 327.77687,90.57441 c -1.64653,-1.02035 0.12312,-2.8618 2.75021,-2.8618 4.14199,0 4.47617,-2.33522 4.47617,-31.27927 0,-29.82362 -0.17021,-30.72073 -5.82874,-30.72073 -1.26334,0 -2.17126,-0.62723 -2.17126,-1.5 0,-1.29252 3.38889,-1.5 24.5,-1.5 h 24.5 v 8 c 0,8.44516 -1.11513,10.21121 -2.94556,4.66494 -2.34586,-7.10801 -5.97364,-9.12317 -17.11793,-9.50865 l -9.93651,-0.34371 V 40.1189 54.71261 h 8.04546 c 8.99704,0 12.95454,-2.2773 12.95454,-7.45455 0,-1.59596 0.55952,-2.54545 1.5,-2.54545 1.24638,0 1.5,1.94444 1.5,11.5 0,11.00514 -1.01605,14.62014 -2.45931,8.75 -1.62099,-6.59299 -2.76198,-7.25 -12.59048,-7.25 h -9.00368 l 0.27674,14.75 0.27673,14.75 10,-0.0354 c 12.9158,-0.0458 15.40273,-1.27437 19.16326,-9.46706 3.83353,-8.35173 6.10077,-8.00776 4.40907,0.66893 -0.51833,2.65846 -1.21418,6.50582 -1.54633,8.54969 l -0.60392,3.71613 -24.5593,0.28387 c -13.50762,0.15613 -25.02274,-0.003 -25.58916,-0.35432 z"
       id="path28" />
    <path
       style="fill:#4d4d4d"
       d="m 98.176359,90.94327 c -20.7038,-0.24976 -29.24873,-1.62648 -19.09478,-3.07648 4.93947,-0.70536 4.92167,-0.59434 4.92167,-30.7052 0,-30.74328 -0.12502,-31.44898 -5.57143,-31.44898 -1.49206,0 -2.42857,-0.57843 -2.42857,-1.5 0,-1.25641 2.11111,-1.5 13,-1.5 10.88889,0 13.000001,0.24359 13.000001,1.5 0,0.91273 -0.93084,1.5 -2.377551,1.5 -4.53417,0 -4.66892,0.98645 -4.38776,32.12091 l 0.26531,29.37909 9.500001,-0.004 c 11.49367,-0.005 13.72083,-1.22497 17.76955,-9.73566 4.65658,-9.78845 6.13266,-7.97709 3.73028,4.57756 -0.82491,4.31088 -1.49983,7.97092 -1.49983,8.13342 0,0.8217 -6.4707,1.00483 -26.826891,0.75927 z"
       id="path27" />
    <path
       style="fill:#4d4d4d"
       d="m 280.00325,91.10601 c -7.29861,-1.95732 -7.75345,-2.60502 -8.17629,-11.6434 -0.44194,-9.4465 1.0677,-10.27421 4.55968,-2.5 7.52431,16.7514 28.63239,15.66853 28.61287,-1.46788 -0.007,-5.82007 -2.99241,-9.0637 -13.13507,-14.26939 -12.61581,-6.47502 -14.78026,-8.1235 -16.95575,-12.9138 -7.08912,-15.60981 6.54597,-30.32436 24.88697,-26.85722 10.64803,2.01287 11.20759,2.44483 11.20759,8.65175 0,2.99363 0.27315,6.15477 0.60699,7.02475 1.69263,4.41092 -2.74569,0.95858 -4.94579,-3.84708 -4.11132,-8.9803 -14.56013,-11.82605 -20.73812,-5.64806 -7.09267,7.09267 -1.5165,19.00626 11.28619,24.1132 32.31172,12.88901 16.75549,48.46569 -17.20927,39.35713 z"
       id="path26" />
    <path
       style="fill:#4d4d4d"
       d="m 223.50325,91.05851 c -6.75919,-2.04777 -6.92849,-2.30498 -7.5,-11.39484 -0.62398,-9.92433 0.58133,-10.27507 4.93304,-1.43549 7.45908,15.15153 28.06696,13.70777 28.06696,-1.96634 0,-6.46687 -3.87448,-10.40397 -16.28603,-16.54921 -27.17811,-13.45651 -17.87189,-43.59605 11.73621,-38.0094 8.63019,1.6284 9.27694,2.28584 10.09245,10.2594 0.84022,8.21515 -0.99852,9.28144 -3.88817,2.25475 -6.24417,-15.18379 -28.157,-11.59613 -24.25007,3.97033 1.11424,4.43946 6.45211,9.24053 15.10871,13.58928 31.3305,15.73928 15.83275,49.53553 -18.0131,39.28152 z"
       id="path25" />
    <path
       style="fill:#4d4d4d"
       d="M 27.053149,91.62105 C -6.656828,85.01216 -9.741005,36.20644 22.756588,23.62987 30.246839,20.73114 43.751932,20.49399 52.630671,23.10528 l 6.127428,1.80211 0.62257,4.54219 c 1.65459,12.07149 -0.55661,16.59764 -3.870011,7.92162 -7.49269,-19.61932 -34.177475,-16.3271 -41.082245,5.06851 -7.862331,24.36278 5.805449,48.04261 26.577701,46.04666 7.858477,-0.7551 8.997133,-2.38808 8.997133,-12.90305 v -8.81933 l -2.95034,-1.52568 c -1.622687,-0.83913 -3.685187,-1.52568 -4.583333,-1.52568 -0.898147,0 -1.446084,-0.5625 -1.21764,-1.25 0.302369,-0.90998 3.769971,-1.25 12.747492,-1.25 12.605563,0 15.783093,1.01246 10.012933,3.19046 l -3.00911,1.13581 v 10.46494 10.46494 l -5.750002,2.08464 C 44.70142,92.37896 35.837334,93.3432 27.053149,91.62105 Z"
       id="path10" />
    <path
       style="fill:#4d4d4d"
       d="M 338.3045,15.37617 C 338.3045,12.57939 353.82593,0 357.27682,0 c 4.70022,0 6.79939,2.04347 4.27415,4.16072 -7.37712,6.18525 -23.24647,13.84155 -23.24647,11.21545 z"
       id="path15" />
  </g>
</svg>
