<?xml version="1.0" encoding="UTF-8" standalone="no"?>
<svg
   width="32"
   height="32"
   viewBox="0 0 32 32"
   fill="none"
   version="1.1"
   id="svg10"
   sodipodi:docname="logo-icon.svg"
   inkscape:version="1.4.2 (f4327f4, 2025-05-13)"
   inkscape:export-filename="logo-icon.png"
   inkscape:export-xdpi="768"
   inkscape:export-ydpi="768"
   xmlns:inkscape="http://www.inkscape.org/namespaces/inkscape"
   xmlns:sodipodi="http://sodipodi.sourceforge.net/DTD/sodipodi-0.dtd"
   xmlns="http://www.w3.org/2000/svg"
   xmlns:svg="http://www.w3.org/2000/svg">
  <sodipodi:namedview
     id="namedview10"
     pagecolor="#ffffff"
     bordercolor="#000000"
     borderopacity="0.25"
     inkscape:showpageshadow="2"
     inkscape:pageopacity="0.0"
     inkscape:pagecheckerboard="0"
     inkscape:deskcolor="#d1d1d1"
     inkscape:zoom="25.46875"
     inkscape:cx="16"
     inkscape:cy="16"
     inkscape:window-width="1920"
     inkscape:window-height="1017"
     inkscape:window-x="-8"
     inkscape:window-y="-8"
     inkscape:window-maximized="1"
     inkscape:current-layer="svg10"
     inkscape:export-bgcolor="#ffffff00" />
  <path
     d="M0 8.42105C0 3.77023 3.77023 0 8.42105 0H23.5789C28.2298 0 32 3.77023 32 8.42105V23.5789C32 28.2298 28.2298 32 23.5789 32H8.42105C3.77023 32 0 28.2298 0 23.5789V8.42105Z"
     fill="#465FFF"
     id="path1" />
  <defs
     id="defs10">
    <filter
       id="filter0_d_1884_16361"
       x="7.42383"
       y="6.2373"
       width="5.36841"
       height="20.5264"
       filterUnits="userSpaceOnUse"
       color-interpolation-filters="sRGB">
      <feFlood
         flood-opacity="0"
         result="BackgroundImageFix"
         id="feFlood4" />
      <feColorMatrix
         in="SourceAlpha"
         type="matrix"
         values="0 0 0 0 0 0 0 0 0 0 0 0 0 0 0 0 0 0 127 0"
         result="hardAlpha"
         id="feColorMatrix4" />
      <feOffset
         dy="0.5"
         id="feOffset4" />
      <feGaussianBlur
         stdDeviation="0.5"
         id="feGaussianBlur4" />
      <feComposite
         in2="hardAlpha"
         operator="out"
         id="feComposite4" />
      <feColorMatrix
         type="matrix"
         values="0 0 0 0 0 0 0 0 0 0 0 0 0 0 0 0 0 0 0.12 0"
         id="feColorMatrix5" />
      <feBlend
         mode="normal"
         in2="BackgroundImageFix"
         result="effect1_dropShadow_1884_16361"
         id="feBlend5" />
      <feBlend
         mode="normal"
         in="SourceGraphic"
         in2="effect1_dropShadow_1884_16361"
         result="shape"
         id="feBlend6" />
    </filter>
    <filter
       id="filter1_d_1884_16361"
       x="13.7422"
       y="12.9727"
       width="5.36841"
       height="13.7891"
       filterUnits="userSpaceOnUse"
       color-interpolation-filters="sRGB">
      <feFlood
         flood-opacity="0"
         result="BackgroundImageFix"
         id="feFlood6" />
      <feColorMatrix
         in="SourceAlpha"
         type="matrix"
         values="0 0 0 0 0 0 0 0 0 0 0 0 0 0 0 0 0 0 127 0"
         result="hardAlpha"
         id="feColorMatrix6" />
      <feOffset
         dy="0.5"
         id="feOffset6" />
      <feGaussianBlur
         stdDeviation="0.5"
         id="feGaussianBlur6" />
      <feComposite
         in2="hardAlpha"
         operator="out"
         id="feComposite6" />
      <feColorMatrix
         type="matrix"
         values="0 0 0 0 0 0 0 0 0 0 0 0 0 0 0 0 0 0 0.12 0"
         id="feColorMatrix7" />
      <feBlend
         mode="normal"
         in2="BackgroundImageFix"
         result="effect1_dropShadow_1884_16361"
         id="feBlend7" />
      <feBlend
         mode="normal"
         in="SourceGraphic"
         in2="effect1_dropShadow_1884_16361"
         result="shape"
         id="feBlend8" />
    </filter>
    <filter
       id="filter2_d_1884_16361"
       x="20.0547"
       y="8.76172"
       width="5.36841"
       height="18"
       filterUnits="userSpaceOnUse"
       color-interpolation-filters="sRGB">
      <feFlood
         flood-opacity="0"
         result="BackgroundImageFix"
         id="feFlood8" />
      <feColorMatrix
         in="SourceAlpha"
         type="matrix"
         values="0 0 0 0 0 0 0 0 0 0 0 0 0 0 0 0 0 0 127 0"
         result="hardAlpha"
         id="feColorMatrix8" />
      <feOffset
         dy="0.5"
         id="feOffset8" />
      <feGaussianBlur
         stdDeviation="0.5"
         id="feGaussianBlur8" />
      <feComposite
         in2="hardAlpha"
         operator="out"
         id="feComposite8" />
      <feColorMatrix
         type="matrix"
         values="0 0 0 0 0 0 0 0 0 0 0 0 0 0 0 0 0 0 0.12 0"
         id="feColorMatrix9" />
      <feBlend
         mode="normal"
         in2="BackgroundImageFix"
         result="effect1_dropShadow_1884_16361"
         id="feBlend9" />
      <feBlend
         mode="normal"
         in="SourceGraphic"
         in2="effect1_dropShadow_1884_16361"
         result="shape"
         id="feBlend10" />
    </filter>
  </defs>
  <path
     style="fill:#ffffff;fill-opacity:0.94717;stroke-width:0.766997"
     d="M 14.023135,27.810773 C 11.766387,27.572138 9.3719534,26.462578 7.690299,24.876191 5.9924009,23.27448 4.8574556,21.233728 4.3843029,18.931658 4.090036,17.499937 4.1516006,15.367036 4.5279046,13.956602 4.9559311,12.352303 5.6494283,11.027048 6.8027309,9.6094662 7.1977712,9.123902 7.415303,8.7425877 7.57427,8.2570236 7.896964,7.271353 8.0951767,6.9257511 8.5851507,6.4944592 9.657307,5.550709 11.133784,5.6579785 12.50285,6.779089 c 0.782885,0.6410951 1.224626,0.830364 2.680893,1.1486581 2.125339,0.4645323 3.049035,0.9217312 4.27591,2.1164329 0.850386,0.828086 1.720425,1.969117 2.291858,3.005714 0.539362,0.978417 0.929672,1.493128 1.327836,1.75105 0.185342,0.12006 0.337524,0.247401 0.338182,0.28298 6.57e-4,0.03558 -0.227029,0.142038 -0.50597,0.236578 -0.652651,0.221197 -2.017578,0.219348 -2.87394,-0.0039 -1.483155,-0.386634 -2.156869,-0.725936 -4.395439,-2.213663 -2.346933,-1.559745 -4.21529,-2.333923 -5.915825,-2.451302 -0.6194736,-0.04276 -0.8918636,-0.01827 -1.2289954,0.110479 -0.9213041,0.351849 -1.8965276,1.88774 -2.2737145,3.580898 -0.2507367,1.125535 -0.3534812,3.082556 -0.2062286,3.928141 0.1237711,0.710746 0.6210076,2.50288 0.8395741,3.025984 l 0.1407807,0.336936 0.4580836,-0.350234 C 7.9826353,20.881084 8.5922222,20.599034 9.117426,20.515051 L 9.4827349,20.456641 9.2402245,20.022743 C 8.8646762,19.350814 8.8154029,17.70941 9.1567655,17.242568 c 0.1055032,-0.144285 0.1231591,-0.07788 0.1185447,0.44582 -0.00683,0.771423 0.2251753,1.269264 0.7903928,1.696278 0.715067,0.540222 0.9023,0.523108 2.108242,-0.192708 2.383935,-1.415043 2.946014,-1.618968 4.62747,-1.678871 1.325725,-0.04723 1.957757,0.03496 4.540344,0.590505 0.637579,0.137148 1.612477,0.277967 2.166439,0.312931 1.330063,0.08394 1.000117,0.229881 -0.672096,0.297269 -0.915667,0.0369 -1.631913,-0.0041 -2.94038,-0.168164 -1.982641,-0.248649 -2.809697,-0.217863 -3.851153,0.143357 -1.74864,0.606504 -3.210497,2.093506 -3.738703,3.803015 -0.309771,1.002555 -0.222814,1.101695 0.224084,0.255483 0.460649,-0.872249 0.857074,-1.463728 1.359671,-2.028664 l 0.343772,-0.386412 0.0048,0.772824 c 0.01341,2.18084 0.688195,3.862425 1.868191,4.655574 0.62166,0.417857 1.095508,0.471118 2.047523,0.230147 1.688243,-0.427323 4.216153,-2.00861 5.599302,-3.502537 0.651645,-0.703837 1.721611,-2.2258 2.042041,-2.904682 0.09404,-0.199243 0.206406,-0.362261 0.249696,-0.362261 0.109278,0 0.113233,-0.01753 -0.22222,0.984684 -1.408915,4.209324 -5.060088,7.147629 -9.455975,7.609761 -1.0297,0.108251 -1.27637,0.10771 -2.343568,-0.0051 z m 6.558858,-14.359559 c -0.525416,-1.043337 -0.85486,-1.263402 -2.58885,-1.729325 -0.262424,-0.07051 0.450344,1.250701 0.888069,1.646159 0.336553,0.304055 0.679803,0.445846 1.88093,0.776979 0.177154,0.04883 0.159388,-0.01958 -0.180149,-0.693813 z m 4.913697,4.195843 c -0.586803,-0.279881 -1.369207,-1.01949 -1.459639,-1.379802 -0.127221,-0.506889 0.285817,-0.809621 1.107713,-0.811883 0.37588,-0.001 0.503811,-0.03447 0.467473,-0.122177 C 24.159604,11.829429 23.837788,11.250208 22.461608,9.6642919 20.963184,7.937503 18.4365,6.638765 15.468327,6.0696825 14.071339,5.8018403 13.96821,5.7544435 14.702843,5.717874 c 0.591154,-0.029427 0.618924,-0.043092 1.110934,-0.5466629 0.439287,-0.4496081 0.567165,-0.5245592 0.98764,-0.5788693 0.89796,-0.1159839 2.068672,0.2431094 2.577169,0.7904962 0.135857,0.1462473 0.370299,0.4804383 0.520981,0.7426469 0.240704,0.4188571 0.251056,0.4672229 0.08526,0.3983367 -0.606786,-0.2521077 -1.502776,-0.5266151 -1.879265,-0.5757569 -0.355684,-0.046426 -0.311778,-0.020658 0.241508,0.1417436 2.109864,0.6192888 4.210853,2.0301432 5.570446,3.7406606 1.019365,1.2824751 1.592185,2.4214761 2.101466,4.1785781 0.318759,1.099772 0.469241,1.308899 1.226582,1.704604 0.589654,0.30809 0.642494,0.476963 0.335561,1.072439 -0.498994,0.968089 -1.228974,1.26946 -2.085431,0.860967 z"
     id="path17" />
</svg>
